<svg xmlns="http://www.w3.org/2000/svg" viewBox="0 0 1000 800" xmlns:v="https://vecta.io/nano"><path d="M-42.9-7.4h1074.6V800H-42.9z"/><path d="M1031.7 757.9H-42.9V41.5h1074.6v716.4zM601.9 631.6c.3-4.9-1-7.9-7.1-6.1l3.3 6.1-8.2 1.2c.1.6.3 1.2.4 1.8l11.8-3.2c2 .8 4 2.3 6.1 2.3l196.9.5 146 .1h21.6v-2.5h-29.1l-.1-32.5c0-2-1.5-3.9-2.7-6.6-10.5 12.7-3.4 26.3-6.1 38.7h-39.6c-2.4-12.7 2.2-25.6-2.5-37.4-1.2 0-2.4-.1-3.7-.1-1 6-2.2 11.9-3 18-.4 2.8 0 5.7 0 8.6.1 12.5.1 12.5-12.8 11.2-.4 0-.8-.5-1.5-.9-1.5-13.3 1.3-27.3-3.1-40.7-7.3 12.7-2.5 26.7-5.9 39.9v-17.3h-1.2l-1.2 14.2c-.5.1-1.1.1-1.6.2l-14.9-20.8c0 6.8.2 14-.1 21.1-.1 1.5-1.8 2.9-2.8 4.4-.8-1.4-2.2-2.9-2.2-4.3-.2-8.8.1-17.7-.1-26.5-.1-2.4-1.2-4.7-1.9-7.1-1.1 0-2.2.1-3.4.1-1.1 5.7-2.6 11.4-3.1 17.2-.5 5.2.2 10.5-.2 15.7-.1 1.8-2.1 4.8-3.3 4.8-14.4.3-28.9.2-43.6.2v-20.3c-.2-6.1 2.2-12.9-4.8-18-2.1 6.1-3.3 12.1-3.7 18.2-.4 6.5-.1 13.1-.1 19.4h-47.1l-.1-32.1c-.1-2-1.7-4-3.2-7.3-9.3 13.4-3.4 26.8-5.7 40.1-14.4 0-28.6.1-42.8-.3-1.2 0-3.1-3.6-3.2-5.6-.3-8.6.1-17.2-.1-25.8-.1-2.3-1.5-4.6-2.2-6.9-1.1.1-2.1.1-3.2.2-1 5.1-2.5 10.2-3 15.3-.5 5.9.2 11.9-.1 17.9-.1 1.7-1.7 4.7-2.7 4.7-8 .4-15.9.2-24.9.2v-30.8h-12.7c-1 4.4-1.2 10.7-2.7 11.1-7.8 1.7-7.3 6.9-7.3 12.5 0 3.3 1 7.6-6.1 7.1V600h-1.9l-3.5 31.6zM91.6 439.3h-1.5l-1.8 14-1.6-13.9c-.7 0-1.3.1-2 .1l-1.2 12.2c-.4 0-.8-.1-1.1-.1l-.8-12.2h-2.1l-1.3 12.1c-.4 0-.7-.1-1.1-.1l-1.2-12H74l-1.2 12c-.2 0-.4 0-.6.1l-1.7-12.1h-1.8l-1.5 11.7c-.2 0-.4 0-.6-.1l-1.4-11.2c-.6 0-1.3.1-1.9.1l-1.2 11.5c-.4-.1-.8-.1-1.2-.2l-.7-12.2c-1.7 0-3.8-.1-3.9 0-1 7.4-1.7 14.7-2.6 22.4-4.2.3-8.7.2-13.1 1-1.6.3-3.9 2.4-3.9 3.7 0 1.7 1.8 3.6 3.2 5.1.7.7 2 .8 2.9 1.2l-.1 19.8c0 1.7-.4 4.1-1.5 5.1-6.8 6.3-6.8 7.1 1.5 11.4l-.1 19.3c-.1 1.9-.6 4.5-1.9 5.6-6.3 5.4-6.1 7.3 2.1 10.8 0 6.4.3 12.8-.2 19.2-.2 2.2-2.4 4.2-3.5 6.4-1.2 2.4-2.1 4.8-3.2 7.3l6.9 2.5-.1 19.9c0 1.8-.3 4.1-1.5 5.2-6.6 6.5-6.6 7.3 1.5 11.3 0 2.6-.3 5.3.1 7.9.9 6.3-1.6 8.5-7.9 8.1-6.9-.5-13.8-.1-20.7-.1v1.6h562.9l-8.7-7.7-1.3 5.6h-8.4l-2.3-7c-2.5 0-4.7-.3-6.8.1-5.1 1-12.7-3.6-13.9 6.1-1.8-.5-5.2-.9-5.3-1.5-.9-9.9-1.3-19.8-1.8-30.2 41.1-6.5 81.7-1.4 121.9-5-2.6-1-5.2-1-7.8-1-33.2-.1-66.4.1-99.6-.3-8.8-.1-17.6-2.3-26.4-3.5 1.3-1.8 2.4-1.9 3.6-1.9h194.1 222.8c2.3 0 4.9-.2 6.8-1.2 2.9-1.6 5.3-4 9.1-6.9V273l-7.1-1.6-1.2-10.7H910c-3.1 0-6.3-3-7.7-3.3-8.7-1.5-17.7-1-26.6-1.1-.1 0-.2.4-.3.6-.8 6.4-4.8 2.9-9.3 3.4v-28.6c-.9-.1-1.8-.1-2.7-.2-8.5 8-.6 19.6-5.2 29.1h-68.4c-4 0-8.2.1-11.8-1.2-.9-.3 0-6 .4-9.2.6-4.9 1.4-9.7 2.2-15.3h-61.9l3.9-32.6h-30l5.8 40c.7 4.4-.9 5.5-4.6 6l-55.7 6.4-1.5 5.7c-1.4.1-2.4.2-3.3.2l-12.2.1c-9.5 0-9.6 0-9.6-9.9v-88.1c0-3.3-.4-6.6-.6-10.1h-55.8v96.6H544l-1.1-9.7h-23.3l-.9-8.1h-15.4l-1 8.6h-30.6l-.5 9.8h-12.4l5.6-40.6-147.6 14.5v37.9l-43.6-2.5 8-56.6h-30l7.6 55.1c-2.5.1-4.6.3-6.7.4-32.6 1.8-65.2-2.5-97.9 2.4-17.7 2.7-36.1.5-55.1.5v-27.8H98l-3 28H54.6c-.2 2.3-.5 4-.5 5.6L54 431.4c0 5.6 1.9 6.4 7.2 6.3 20.1-.4 40.2-.2 60.1-.2v14.3h-1.1l-1.2-12.1c-.6 0-1.2-.1-1.8-.1l-1.5 12h-.6l-1.7-11.7c-.6 0-1.1 0-1.7-.1l-1.5 12c-.2 0-.4.1-.6.1l-1.4-12.1h-2l-1.4 12.2c-.3 0-.6-.1-1-.1l-.8-12h-2.1l-1.3 12c-.4 0-.8-.1-1.1-.1l-1-12.1h-2l-1.2 11.9c-.2 0-.4-.1-.6-.1-.9-4.4-1.5-8.3-2.1-12.2zM516.2 690v-.4l-.4.2.4.2z"/><g fill="#fff"><path d="M91.6 439.3l1.9 11.6c.2 0 .4.1.6.1l1.2-11.9h2l1 12.1c.4 0 .8.1 1.1.1l1.3-12h2.1l.8 12c.3 0 .6.1 1 .1l1.4-12.2h2l1.4 12.1c.2 0 .4-.1.6-.1l1.5-12c.6 0 1.1 0 1.7.1l1.7 11.7h.6l1.5-12c.6 0 1.2.1 1.8.1l1.2 12.1h1.1v-14.3c-19.9 0-40-.3-60.1.2-5.3.1-7.2-.7-7.2-6.3l.2-164.7c0-1.6.3-3.2.5-5.6h40.4l3-28H99v27.8c19 0 37.4 2.2 55.1-.5 32.7-4.9 65.3-.7 97.9-2.4l6.7-.4-7.6-55.1h30l-8 56.6 43.6 2.5v-37.9l147.6-14.5-5.6 40.6h12.4l.5-9.8h30.6l1-8.6h15.4l.9 8.1h23.3l1.1 9.7H555V152h55.8c.2 3.6.6 6.9.6 10.1v88.1c0 9.9.1 9.9 9.6 9.9l12.2-.1c1 0 1.9-.1 3.3-.2.5-2.1 1.1-4.2 1.5-5.7l55.7-6.4c3.8-.4 5.3-1.6 4.6-6-2.2-13.1-3.8-26.2-5.8-40h30l-3.9 32.6h61.9l-2.2 15.3c-.4 3.2-1.3 8.9-.4 9.2 3.6 1.3 7.8 1.2 11.8 1.2h68.4c4.7-9.5-3.3-21.1 5.2-29.1.9.1 1.8.1 2.7.2v28.6c4.4-.5 8.5 3 9.3-3.4 0-.2.2-.6.3-.6 8.9.1 17.9-.4 26.6 1.1 1.4.2 4.6 3.2 7.7 3.3h34.8l1.2 10.7 7.1 1.6v306.3c-3.8 3-6.2 5.4-9.1 6.9-1.9 1-4.5 1.2-6.8 1.2H714.3 520.2c-1.1 0-2.3.2-3.6 1.9 8.8 1.2 17.6 3.4 26.4 3.5l99.6.3c2.6 0 5.2 0 7.8 1-40.2 3.7-80.8-1.5-121.9 5l1.8 30.2c.1.7 3.4 1 5.3 1.5 1.2-9.8 8.8-5.2 13.9-6.1 2.1-.4 4.3-.1 6.8-.1l2.3 7h8.4l1.3-5.6 8.7 7.7H14.1v-1.6c6.9 0 13.8-.4 20.7.1 6.3.5 8.8-1.8 7.9-8.1-.4-2.6-.1-5.2-.1-7.9-8-4-8.1-4.8-1.5-11.3 1.1-1.1 1.4-3.4 1.5-5.2.2-6.4.1-12.9.1-19.9l-6.9-2.5c1.1-2.5 2-4.9 3.2-7.3 1.1-2.2 3.4-4.2 3.5-6.4.5-6.4.2-12.9.2-19.2-8.2-3.5-8.4-5.4-2.1-10.8 1.3-1.1 1.8-3.7 1.9-5.6.2-6.4.1-12.9.1-19.3-8.3-4.4-8.3-5.1-1.5-11.4 1.1-1.1 1.4-3.4 1.5-5.1.2-6.4.1-12.9.1-19.8-.8-.3-2.2-.4-2.9-1.2-1.3-1.5-3.1-3.4-3.2-5.1 0-1.3 2.4-3.4 3.9-3.7 4.4-.7 8.9-.7 13.1-1l2.6-22.4c0-.1 2.2 0 3.9 0l.7 12.2c.4.1.8.1 1.2.2l1.2-11.5c.6 0 1.3-.1 1.9-.1l1.4 11.2c.2 0 .4 0 .6.1l1.5-11.7h1.8l1.7 12.1c.2 0 .4 0 .6-.1l1.2-12h1.9l1.2 12c.4 0 .7.1 1.1.1l1.3-12.1h2.1l.8 12.2c.4 0 .8.1 1.1.1l1.2-12.2c.7 0 1.3-.1 2-.1l1.6 13.9 1.8-14c.5.6 1 .6 1.6.6zM569.1 254l-12.1-1.8c-.6 8.1-2.7 9 19.2 7.5l-7.1-5.7 16.2 6.1-2.1-5 5.3 3.8 1.1-6.4-20.5 1.5zM224.6 437.6l-12.8-.4h-86.5v13.7h.7l1.8-11.5c.6.1 1.2.1 1.7.2l1.4 11.6c.2 0 .4-.1.6-.1l1.3-11.6c.6.1 1.2.1 1.8.2l1.6 11.7c.3-.1.5-.1.8-.2l1.3-11.8c.6 0 1.1.1 1.7.1l1.5 12.2c.3-.1.7-.1 1-.2l1.2-12c.6 0 1.2.1 1.8.1l1.2 11.9h.7l1.8-12.3c.6.1 1.1.1 1.7.2l1.4 12.3c.2 0 .4-.1.6-.1l1.2-12.1h1.8l1.8 12.3c.2 0 .4-.1.6-.1l1.5-12.1c.6.1 1.2.1 1.8.2l1.1 12c.4 0 .8 0 1.2-.1l.9-11.8h1.9l1.7 12.9 1.9-13.4c.6.1 1.2.1 1.8.2l1.6 11.9c.2 0 .4-.1.6-.1l1.3-11.7c.6.1 1.2.1 1.7.2l1.5 11.7c.3-.1.7-.1 1-.2l1.3-11.9c.6 0 1.2.1 1.8.1l1.1 11.8c.3 0 .7-.1 1-.1l1.5-11.4c.6.1 1.1.1 1.7.2l1.5 13.1 2-13.3c.6.1 1.1.1 1.7.2l1.6 11.7c.2 0 .4 0 .6-.1l1.5-12c.6.1 1.2.1 1.7.2l1.2 12.2c.4 0 .7-.1 1.1-.1l1.3-12.5c.6.1 1.3.1 1.9.2l1 12h1.1l1.2-11.7c.7 0 1.3.1 2 .1l1.2 11.6c.9-2 .9-4.1 1.2-6.1s.8-3.9 1.2-5.9l1.4.3 2 13.5 1.8-13.9c.6.1 1.1.1 1.7.2l1.2 12.3c.3-.1.7-.1 1-.2l1.7-14 3.2 14.4 1.7-12.5c.6 0 1.2.1 1.8.1l1.7 13.5 1.8-13.5c.6.1 1.2.1 1.7.2l1.7 11.7c.2 0 .4 0 .6-.1l1.4-12.1c.6.1 1.2.1 1.8.2l1.3 12.3c.4-.1.7-.1 1.1-.2l1.1-11.9h2.1l1 12h1.1l1.1-12h1.9l2 13.1 1.7-13.3c.5 0 1.1.1 1.6.1l1.9 11.9c.2 0 .5-.1.7-.1l1.3-11.9c.6 0 1.2.1 1.8.1l1.2 11.9c.3 0 .7-.1 1-.1l1.4-11.7c.6 0 1.3.1 1.9.1l.9 11.7h.8l1.5-11.9h1.9l1.6 11.9c.4 0 .7-.1 1.1-.1v-13.6c-17.3-.5-34.6-.5-51.8-.5zm189 2.3l1.1 11.2h.8l1.4-11.8h1.9l1.5 12.2c.2 0 .4-.1.6-.1l1.3-12.1h1.8l2.1 13.8 1.9-13.7c.6.1 1.2.2 1.8.2l.9 12.2c.4 0 .8 0 1.2.1l1.4-12.3h1.8l1.3 11.4c.2 0 .4-.1.6-.1l1.6-11.4c.5 0 1 0 1.6.1l1.8 11.8c1-2.2.8-4.4 1-6.5.2-1.9.6-3.7 1-5.6.5 0 1.1.1 1.6.1l1.4 12.4c.3-.1.7-.1 1-.2l1.3-12.5c.6 0 1.3.1 1.9.1l1 12h1.1l1.1-11.8h2l1.4 11.4c.2 0 .4-.1.6-.1l1.3-11.5h1.7l2.1 13.8 1.7-13.8c.6.1 1.1.1 1.7.2l1.4 12c.3 0 .6-.1.9-.1l1.5-12.4c.6.1 1.3.1 1.9.2l.7 12.2c.4 0 .7.1 1.1.1l1.5-12c.6.1 1.1.1 1.7.2l1.7 13.3 2-13.6c.5.1 1 .1 1.5.2l1.8 11.6c1.1-2.3.9-4.4 1.1-6.5.2-1.9.7-3.7 1-5.6.5.1 1 .1 1.5.2l1.6 12.3c.3-.1.7-.1 1-.2l1.1-12.1c.7.1 1.4.1 2 .2l.9 12.2h1l1.4-12.3c.6 0 1.2.1 1.8.1l1.7 13.6 1.7-13.7c.6.1 1.2.2 1.7.2l1.7 11.7c.2 0 .5 0 .7-.1l1.4-12.1c.6.1 1.2.1 1.7.2l1.3 12.2c.4 0 .7 0 1.1-.1l1.3-12.1c.6.1 1.3.1 1.9.2l.9 11.5h1l1.5-11.8c.6 0 1.2.1 1.7.1l1.3 12.3h.9l.8-14.3h-10.9c-30.8 0-61.6-.1-92.4.1-1.9-.1-4.1 1.7-6.4 2.6l-16.1-3.9 1.2 15.2h.8l1.3-12.1h1.6l1.9 12.6c.2 0 .5 0 .7-.1l1.3-12.5c.6 0 1.2.1 1.8.1l1.4 12.2c1.4-2.8 1.1-5.4 1.6-7.9.1-1.3 1.6-2.4 2.5-3.6zM54.8 586.2c.1-1.1.1-2.2.2-3.3l329.8-.5c-1.9-.2-3.8-.2-5.7-.2-105.8 0-211.5-.1-317.3.1-5.7 0-8-1.2-7.9-7.4L54 514v-41.9h-8.6V494l6.2-2.4c-2.4 5.7 5.1 14.9-6.3 16.4v24l6.3-5.4c-2 6.7 4.8 15.4-6.5 17.6v13.9c0 .5-.1 1 0 1.4.8 1.9 1.1 4.3 2.5 5.6 6.3 5.9 5.4 11.9-2.1 14.8v23.4l6.6-5.4c-2.9 7.1 4.4 16.1-6.9 17.8v15.7c11.8 1.5 12.1 1.2 11.5-9.7-.2-4 .1-8.2-.4-12.2-.8-6.4 1.4-11.3 6.8-17.1 4.9 13.5.1 26.4 2.5 39.5h22.9c17.7 0 17.7 0 17.4-17.5-.1-7.3-1.3-14.8 6.3-21.9 5.5 13.1.8 26.2 2.7 38.8h46.4c2.5-12.8-3.6-26.4 6.2-39.8 1.4 4 2.8 6.4 2.9 8.9.1 8.3-.4 16.7-.3 25 0 2.1 1.6 4.1 2.4 6.2.8-1.9 2.1-3.8 2.3-5.7.6-6.6.8-13.3 1.1-19.3l15.5 22 1.1-22.7h2.2c0 6.8-.2 13.6.1 20.4.1 1.8 1.8 5.1 3 5.2 6.3.5 12.6.2 18.9.2 2.8-13.3-4.6-27.2 6.4-38.9 4.4 6.3 3 12.8 3 19.1v19.3h46.5c1.9-13-3.7-26.3 4.9-38 1.1.7 2.5 1.2 2.5 1.7l1.9 36.4h45.6c3.7-12.6-4.3-26.7 8.6-37.2v37.7l40.7.1c6.2.2 7.9-2.1 7.4-7.9-.5-5.2.3-10.5-.3-15.7-.7-6.3 2.2-10.6 8.2-14.5v37.4h47c3.2-12.7-3.8-26.6 7.3-39.4 4.2 13.9.7 26.8 2.4 39.1.9.3 1.6.7 2.2.7l29.4.2c15.3.1 15.3 0 15.2-15.5 0-7.9-1.9-16.2 5-23 .8.5 2.2.9 2.3 1.4l2.1 36c12.4 2.7 13.1 2.2 13.2-10.1l-.1-19.3c-.1-2-.5-5.1-1.7-5.6-7-3.2-14.2-8.2-21.5-8.3l-166.2-.4H61.5c-2 .2-4.3-.4-6.7-.8zm316.8-134.1c.5-.1 1.1-.1 1.6-.2v-14.4h-93.7l1.2 14c.4 0 .7-.1 1.1-.1l1.3-12.1c.6.1 1.3.1 1.9.2l1 12c.4 0 .8-.1 1.2-.1l1.1-11.9h2l1.1 11.7h.6l1.6-11.9c.6 0 1.2.1 1.8.1l1.6 12.1c.2 0 .4-.1.6-.1l1.4-12c.6 0 1.1 0 1.7.1l1.6 12.4c.3-.1.6-.1.9-.2l1.3-12.4c.6 0 1.3.1 1.9.1l.8 12.1c.4 0 .7 0 1.1.1l1.5-12c.6.1 1.2.1 1.8.2l1.2 11.3h.6l1.7-11.4c.5.1 1.1.2 1.6.2l2 13.1 1.6-13.7c.6 0 1.2.1 1.7.1l1.3 12.1h1.1l1.4-12.3c.7 0 1.3.1 2 .1l.8 11.8h1.1l1.3-11.7c.7 0 1.4.1 2.1.1l1 11.6h.7l1.5-11.9h1.7l2.2 13.7 1.5-13.7c.6 0 1.2.1 1.7.1l1.5 12c.3 0 .7 0 1-.1l1.4-12.2c.6 0 1.2.1 1.9.1l.9 12.6h1l1.4-12.5c.6 0 1.2 0 1.8.1l1.4 11.8c.2 0 .4-.1.6-.1l1.6-11.9c.5 0 1 .1 1.5.1l2.3 13.7 1.5-13.9c.6 0 1.2.1 1.9.1l1.3 12c.3 0 .6 0 .9-.1l1.6-12c.6.1 1.3.1 1.9.2l.8 12.9zm550.5 130.5c0-.1-.1-.3-.1-.4H501.8v.4h420.3zm-339.4-40.1v-15.6H558v15.6h24.7zm111.5-233.7h24.6v-15.4h-24.6v15.4zm-386.2.1h24.1v-15.6H308v15.6zm443.9 181.4c0 4.7-.3 8.7.2 12.6.2 1.4 2.3 3.7 3.7 3.7 6.8.4 13.6.2 21.2.2 0-4.7.3-8.7-.2-12.6-.2-1.4-2.3-3.7-3.7-3.7-6.7-.4-13.6-.2-21.2-.2zm-389.3.5v15.6h24.3v-15.6h-24.3zm-3.2 15.7v-15.6h-23.7v15.6h23.7zM85.3 308.7h24.8c0-4.2.3-7.9-.1-11.6-.2-1.4-1.9-3.6-3-3.7-7.3-.3-14.5-.2-21.7-.2v15.5zm524.5 53.9v-15.4h-24.3v15.4h24.3zm-391-15.5h-24.7v15.3h24.7v-15.3zm472.7 212.4v-14.6h-24.3v14.6h24.3zm-54.2-212h-24.8c0 3.6-.3 7.2.1 10.6.2 1.4 1.8 3.8 2.8 3.9 7.2.3 14.5.2 21.9.2v-14.7zm-109.1 54h-24.4V416h24.4v-14.5zm-255 143.6h-24.5v15h24.5v-15zm-109-143.5H140v14.5h24.2v-14.5zm-54.3 143.3H85.2V560h24.7v-15.1zm170.6-197.7l1.1 14.6h23.2v-14.6h-24.3zM725 362.5h24.3v-15.3H725v15.3zm109.7-53.8H858v-15h-23.3v15zM441.2 545.1h-23.7V560h23.7v-14.9zm338.6-128.7h23.8v-14.9h-23.8v14.9zm54.4 143.5h23.9v-15h-23.9v15zM390.3 401.4v15h23.4v-15h-23.4zm-250.6 89.4v9.6l24.5 5.9v-15.5h-24.5zm219.6-197.2h-24.1l1 15h23.1v-15zM667 490.9c-.8 10.3-.2 11.5 6.2 11.4 4.7-.1 9.9-2.3 12.8 3.9.4.8 3.4.3 5.6.4v-15.8l-24.6.1zm-26.8 53.9c-.8 7.2 3.3 11.8 9.9 12.1 2.4.1 4.8 1.3 7.2 1.9 2.2.6 4.5 1.1 6.8 1.6v-15.6h-23.9zm-82.3-71.6c0 11.4 0 11.3 10.6 11.5 2.2 0 4.5.7 6.7 1.4 2.4.8 4.7 1.9 7.4 2.9v-15.9l-24.7.1zm27.8-71.8c-1 10.7-.9 10.5 8.8 11.3 2.7.2 5.4 1.2 8 2 2.3.7 4.6 1.6 7.3 2.6v-15.8l-24.1-.1zm106.5 143.4c3.2 5.1 4.7 10.5 7.9 11.8 5.7 2.4 12.4 2.3 18.6 3.3v-15.1h-26.5zm-221-53.9l.5 9.3 24.2 6.1V491l-24.7-.1zm-361.3 0H85.2v8.9h17c-.5 5.9 1.6 8.6 7.7 5.8v-14.7zm421.6 53.9c-.7.6-1.5 1.1-2.2 1.7 2 2.4 4 4.8 5.8 7.4.4.7-.2 2-.3 3.1 1-1 1.8-2.7 3-3 3.1-.7 6.4-.8 9.7-1.1.1.6.3 1.2.4 1.9-1 .7-2.1 1.4-3.2 2.1l10.6 4.2v-16.3h-23.8zm-360.7 10.4c-.4.6-.9 1.1-1.3 1.7h9.5l-5.1-2.1c.1-.4.2-.9.3-1.3h9.3l1.4 6.4h6.4v-14.8h-25.2c.7 2.9 1 5.1 1.8 7.2.5 1.1 1.9 1.9 2.9 2.9zm-3.4-64.4l-1.9 1.9 6.6 9.6c2-1 4.1-3 6-2.9 2.2.2 5.6 2 6 3.6 1.3 5.6 4.3 3.4 7.3 3.1v-15.4l-24 .1zm65.4 65.7l13.2 4.2v-15.8h-26.7l7.4 11.5c0-.7.1-1.4.1-2.2l12.1-1.3c-1.1 2.1-1.3 2.8-1.5 2.8-1.6.4-3.3.6-4.6.8zm412.8-52.8c2.2-5.2 2.2-5.2 13.1 2.7h5.6V491h-26.9l8.2 12.7zm-96.9-87.3h6.6v-14.9h-27l8.8 12.4c1.9-5.2 1.9-5.2 9.8-3.5.5 2 1.1 4 1.8 6zM803.8 491h-24.7l.5 9h16.3c.3 5.4 2.2 8.2 7.8 5.8l.1-14.8zm-283.7 61.9l1.7 7.5a151.04 151.04 0 0 0 6.2-.9v-14.6h-24.7v7.2c2.2 1.7 3.8 2.8 4.4 3.2l12.4-2.4zm-407.6-54.3l8.6.4c4 0 8.2-.9 9 5.3.1 1.2 4 1.9 6.7 3.1v-16.6h-24.3v7.8zm472.8.5h16.6l1.8 7.2c7.2 0 8.2-2.9 5.6-15.3h-24v8.1zM109.8 347.2l8.1 11.4c5.5-4.6 8.7-4 11.6.5 1.3 1.9 4.3 2.7 7.3 4.5v-16.4h-27zm418.3 160.5v-16.8h-24.9l.6 8h9c4 0 8.3-.8 8.8 5.5.1 1.1 3.7 2 6.5 3.3zM246 490.8h-24.5v8.2c4.3 0 8.4-.4 12.3.2 1.8.2 4.5 2 4.7 3.5.9 5.4 4 4.1 7.5 3.3v-15.2zm391.1-182v-15.4h-25.2l.8 7.7 16.4.8 1.8 7.3c2.2-.2 4.1-.3 6.2-.4zm-24.4 236c-1.8 6.8 1.3 8.4 6.6 8.2 3.3-.1 6.5.4 9.8.6v1.8c-1.8.4-3.6.8-4.5 1.1 1.5.7 3.5 1.9 5.6 2.6s4.3.9 6.7 1.4v-15.6l-24.2-.1zM57.9 553h16.2c.1 6.6 2.7 8.7 8.4 6.4V545H57.8c.1 2.6.1 4.7.1 8zm54.5-8.2v7.7h15.7c.8 3 1.4 5.2 2.1 7.4h6.7v-15.1h-24.5zM80.7 363.6c.6-.7 1.2-1.5 1.8-2.2v-14.2H57.9v8.3c4.2 0 8.2-.3 12 .1 1.7.2 3.2 1.7 4.7 2.8 2.2 1.7 4.1 3.5 6.1 5.2zm583.6 54v-16.2h-26.6l7.7 11.6c1.6-1.5 2.9-3.5 4.4-3.8 2.3-.4 4.8.4 9.3 1-3.1 1.9-4.3 2.6-5.6 3.3l10.8 4.1zM82.7 401.4H58.3c-2.2 7.3 1.5 8.6 7.2 8.1 5.1-.4 10.3-.9 10 7.2l7.2-.5v-14.8zm420.8-46.6l16.4 1.2c1.8 7.1 1.8 7.1 8.2 5.4v-14.2h-24.6v7.6zm-141.7-7.7c.4 3 .3 7.5 1.1 7.7 5.2 1.2 10.6 1.5 16 2-.3.5-.7.9-1 1.4l8.9 5.9V347l-25 .1zm-37.4 152c1.4 7.8 1.4 7.8 7.8 6.7V491h-24l.4 8.2 15.8-.1zm428.4-143h16.3c-.4 6 2.1 7.7 7.3 5.6v-14.5h-24l.4 8.9zM273.3 491h-24.4c-1.8 6.1.3 8.4 6.1 8.1 5-.2 11.4-2.7 12 6.2 0 .6 3.8.9 6.3 1.4V491zm-65.6 66.1l10.9 3.6v-15.8h-24.8c.2 2.7.3 4.9.4 7.5l18.2 1.1-4.7 3.6zm-31.6-143.9l15.2 3.8v-15.5h-24.4v7.1l17.1 1.1c0 .8.1 1.6.1 2.5l-8 1zm-74.5-3.4c.2 6.8.7 7.2 8 6.2v-14.5H84.9c.1 2.6.2 4.7.4 7.4l16.3.9zm37.6-62.6c.5 14.3 12.2 4.6 17.2 9.9 0 4.4 2 7.2 7.8 4.6v-14.4l-25-.1zm44.1 8.5l1.5 6.5h6.5v-14.9h-24.5v7.5c5.5.4 10.6.6 16.5.9zm233.6.4h16.4c.5 5 2 8.3 7.8 5.5v-14.2h-24.2v8.7zm-26.8 142.8h15.6c2 8.3 2 8.3 8.2 6.7V491H390c.1 2.6.1 4.9.1 7.9zM640 347.2c-1.8 7.1 1.1 8.8 7.4 8.5 3.2-.1 8.6 1.1 9.3 3.1 1.8 4.9 4.2 3.8 7.5 3.2v-14.8H640zm-46.2-112h-20.9c1.1 5.1.6 11.8 3.1 13.1 4.1 2.2 10.8 2.5 15 .6 2.3-1.2 1.9-8.4 2.8-13.7zm-125.5 271v-15.3h-23.7v7.9l16.5.8c-.2 4.8.6 8.6 7.2 6.6zm168.8-104.8h-26.8l7.4 11.2c.1-.7.3-1.5.4-2.2 3.7-.4 7.4-.9 11.3-1.4l1 7.4h6.7v-15zm-79.2-71.8c-.5 15.9 12.5 4.1 16.9 9 1.2 6.6 1.2 6.6 7.8 5.6v-14.5l-24.7-.1zm-2.4 17.6h-24.6v7.7l16.7.9c.4 5.2 1.8 9 7.9 5.6v-14.2zM273 416.3v-14.8h-24.7c.1 2.6.2 4.7.4 7.3l16.4 1 2 6.9c2.2-.1 4-.2 5.9-.4zm31.9 74.6h-23.7v8h15.9l1.5 7.5h6.3v-15.5zm-56.6-143.8c.2 14.8 12.5 4.4 17.2 9.8 1.3 6.1 1.3 6.1 7.6 4.5v-14.2l-24.8-.1zm192.6 159.1V491H417c.2 2.9.3 5.2.4 8.1h16.3c.3 4.8.3 9.4 7.2 7.1zM414 545h-24.2c.1 2.6.3 4.6.4 7.2l16.4 1.4v1.6l-4.4 1.8 11.8 3.8V545zM218.8 401.5h-24.7v7.4l17.1 1 .9 6.5h6.7v-14.9zM749.1 491h-23.7v8.1h16.1c.4 5.1.9 9.6 7.6 6.9v-15zm81.8 53.8h-23.4c-2.2 6.4.3 8.4 6.3 8.1 3.2-.2 6.4.4 9.6.6.1.5.1.9.2 1.4-1.3.6-2.5 1.3-4.1 2.1l11.4 4v-16.2zm-.1-53.9h-24c-.4 14.5 11.7 4.5 16.4 9.6l1.3 5.8h6.3v-15.4zm-54.4-89.4h-23.8v6.8l11.1 1.9c0 .6-.1 1.2-.1 1.8-1.7.5-3.4 1-5.1 1.6.2.4.5.8.7 1.2l9.7-5 .9 6.6h6.6v-14.9zm-81.9-54.4c-1.7 6.8 1.2 8.4 7 8.5 3.4.1 8.7-2.9 10.1 3.1 1.2 5.3 3.9 4 7.1 3.1v-14.7h-24.2zM82.4 308.4v-14.8H57.6l.5 8h16.2c.1 5.6 1.5 9.4 8.1 6.8zm30-7.3l16 .7 1.8 7.3 6.6-.6v-14.9h-24.5c.1 2.7.1 4.8.1 7.5zm598.8 108.5l1 6.8h6.5v-14.8h-24.8l.6 7.1 16.7.9zM246 293.8h-24.9l.5 7.6h16.5l1.3 7.7c2.4-.1 4.4-.3 6.7-.4l-.1-14.9zm587.9 116.1h16.2l1.7 6.8c2.3-.1 4.3-.3 6.6-.4v-14.9h-24.5v8.5zm-420.2-48.2v-14.3h-24c.1 14.3 11.9 4.6 16.8 9.6-.2 4.1 1.3 7.1 7.2 4.7zm-105.6-14.5c-.4 14.6 11.8 4.7 16.6 10 .2 1 .7 3 1.2 5.1h6.3v-15.1h-24.1zm54.3 54.1l.8 7.7 15.9.7c.1 5.1 1.4 8.7 7.4 6.2v-14.6h-24.1zm441.2 158.2v-14.7h-24.1c-.3 14.2 11.8 4.6 16.6 9.7.1 3.9 1.3 7.3 7.5 5zM468.2 361.7v-14.4h-23.6v7.5l16.4 1c-.4 5 1 8.4 7.2 5.9zm338.6-14.5c.1 2.4-.2 6.1.5 6.3 5.1 1.4 10.4 2 16 3 .3 4.2 1.6 7.8 7.4 5.2v-14.5h-23.9zM495.5 559.5v-14.4h-24.1l.5 7.2 16 1.2c.3 4.9 1.6 8.4 7.6 6zm-214.6-7.2l16.1 1.1c.7 2.7 1.3 4.7 1.8 6.4h6.1v-14.9h-24v7.4zm54.2-7.4c0 13.7 11.8 4.8 16.4 9.4 1.7 6.2 1.7 6.2 7.9 4.9v-14.3h-24.3zm51.6.1h-24.2l.5 7.2 16.1 1.2c0 5.1 1.5 8.6 7.6 6V545zm116.8-243.9l16.8.9 1.1 6.9h6.6v-15.1h-24.5v7.3zm-347.1.2l1.2 8 6.5-.8v-14.9h-24.3v7.6l16.6.1zm148.5 115.1v-14.9h-24.1c.1 2.6.2 4.7.4 7.4l16.3.9 1 6.6h6.4zm190.8 0v-15h-24.2l.5 7.5 16.1.8 1 6.6c2.2.1 4 .1 6.6.1zm106.1-115.2l1.8 8 6.4-.6v-14.8h-25l.7 7.4h16.1zm-410.4 7.7v-15.3H167v7.9h16.5l1.6 7.4h6.3zm364.1 218.3h-25.1l.6 7.7h24.5v-7.7zm-59.8-233.6H472v7.9h15.9c.5 2.7.8 4.8 1.3 7.1h6.6l-.1-15zm170.9.1c.9 13.9 12.8 4.3 17.4 9.3 1.1 6.4 1.1 6.4 7.6 5.1v-14.4h-25zM441.1 416v-14.5h-24l.3 7.3 16.7.8c-.8 5.6.7 8.6 7 6.4zm223.2-107.5v-14.8h-25c1.2 13.8 13.1 3.9 18 9.4-.8 4.6.8 7.4 7 5.4zm-470.1-7.7l16.6 1.2c1.1 3.8.7 9.6 7.8 6.4v-14.7h-24.4v7.1zm518.7 207.7c2.8-2.1 5.7-3.1 6-4.7 2.6-10.3.1-13.3-10.4-13.2H697v.9h18.3v1.4h-22.2c3.7 11.3 13.1 3 18.1 7.8.3 1.3.8 3.3 1.7 7.8zm36.4-214.9h-24.4l.5 7.6 16.1.8 1.4 7.2c2.4-.3 4.4-.5 6.4-.7v-14.9zm-164 143.6c0 7.2 0 7.2 7.3 7.2 5.5 0 12.5-2.1 10.4 8.2l6.8-.4v-15h-24.5zm-54.4 6c6.5 4.1 18.1-4.9 18.1 9.4l6.3-.3v-14.9h-24.4v5.8zm299.8-134.5v-15h-23.4c-1.6 6-.1 8.7 6.1 7.9 3.2-.4 6.5-.1 9.8-.1.5 2.7.8 4.8 1.2 7.2h6.3zM582.5 452.3v-15h-24.8l.3 7.2c4.3 0 8.1.4 11.8-.1 6.5-.9 5.5 4.3 6.4 7.9h6.3zm-223 74.4h-24.8l.5 8.4h24.3v-8.4zM305 293.8h-24.3l.5 7.9h16.2c.4 2.6.6 4.7.9 7.1h6.6l.1-15zm108.8 15v-15h-24.1l.5 8h16c.4 2.7.8 4.7 1.2 7.1 2.2-.1 4.2-.1 6.4-.1zm57.6 218l.8 8.2h23.3v-8.2h-24.1zm-84.7-233h-24.2l.5 7.1 16.2 1.1 1 6.6h6.5v-14.8zm46.8 7.5c1.2 8.1 1.2 8.1 7.4 6.8v-14.5h-23.4v7.8l16-.1zm346.3.3h16.3l.9 7.2h6.6v-15.1h-23.7c-.1 2.6-.1 4.7-.1 7.9zM560 383v1.1h19.6v1.5h-23.3c4.9 9.8 13.2 3.4 18.7 6.7.1 4.7 1.5 8.2 8 5.1l-.6-14.4H560zm270.9 143.8h-23.7v8.2h23.7v-8.2zm.1 36h-24.7l.8 8.3H831v-8.3zm-137 7.9h25v-7.9h-25v7.9zm-2.8-223.5h-22.3v.9h19.7v1.5H667c-.3 6.8 4.1 5.3 7.3 5.7 4.2.5 10.1-2.3 10.8 5.5.1.7 4 1.1 6.1 1.7v-15.3zM280 562.6l.9 8.4H305v-8.4h-25zm-140.3-28.1h24.6v-7.9h-24.6v7.9zm390.6 28.3l.6 8.1h24.7v-8.1h-25.3zm-311.5.2h-24.9v7.9h24.9V563zm420.5-144l.4 8.2h24.8V419h-25.2zM112.5 571h24.3v-8h-24.3v8zm581.4-144h25.4c-.1-3-.3-5.5-.4-7.9h-25v7.9zM528.2 534.5v-7.6h-24.5v7.6h24.5zm54.5-36.1V491h-24.9c.1 2.7.2 4.7.4 7.4h24.5zm-470.3 36h24.5V527h-24.5v7.4zm500-89.3h24.7v-7.7h-24.7v7.7zm-2.4-61.8h-25.1l.6 7.4H610v-7.4zM221.3 282.9h25.1l-.3-7.2h-24.8v7.2zm-29.7-7.4h-24.8v7.8h24.8v-7.8zM558 354.6h24.5v-7.3H558v7.3zm136.2-71.2h24.5v-7.9h-24.5v7.9zm-163.4 179h24.9c-.1-2.8-.3-5-.4-7.5h-24.5v7.5zm51.9-7.5h-24.4v7.5h24.4v-7.5zm2.8 7.5h24.3v-7.5H585l.5 7.5zm-57.4 46.8h-24.8c.1 2.9.3 5.1.4 7.5h24.4v-7.5zm84.5-46.9h24.9l-.6-7.4h-24.3v7.4zM57.4 365.4l.5 8.1h24.6v-8.1H57.4zm582 89.5l.6 7.5h24.7c-.2-2.8-.3-5-.4-7.5h-24.9zm-54.1-171.5h24.5v-8h-24.5v8zm-420.9 82.3h-25.1l.6 7.5h24.5v-7.5zM531 275.5v7.5h24.4v-7.5H531zm187.9 54.2H694c.1 2.9.2 5.2.4 7.7h24.5v-7.7zm-609-18.3H84.8l.5 7.4h24.5c.1-2.5.1-4.6.1-7.4zm27.4.1h-24.8v7.1h24.8v-7.1zm529.7 115h25l-.5-7.4h-24.4c-.1 2.4-.1 4.5-.1 7.4zM191.9 318.9l-.3-7.5h-25l.5 7.5h24.8zm-82.5 162.2v-7.9H84.8l.6 7.9h24zm527.8-62h-24.7v7.3h24.7v-7.3zm-51.9 7.2h25c-.2-2.5-.3-4.8-.4-7.3h-24.5c-.1 2.5-.1 4.5-.1 7.3zm-54.5 0h24.9l-.3-7.3h-24.6v7.3zm-27.3.3h25c-.2-2.8-.3-5.1-.4-7.5h-24.6v7.5zM193.8 319.1h25.4l-.3-7.6h-25c-.1 2.7-.1 4.8-.1 7.6zM221 480.8h25v-7.6h-25v7.6zm27.7-54.4h24.6v-7.3h-25c.1 2.7.2 4.7.4 7.3zm-27.6-7.5l.5 7.6h24.8c-.2-2.8-.3-5-.4-7.6h-24.9zm-54.2 7.4h24.9l-.3-7.3H167c-.1 2.5-.1 4.6-.1 7.3zm-27.6.2h24.9V419h-24.5l-.4 7.5zm-26.8-.1h24.9l-.6-7.3h-24.7c.2 2.6.2 4.7.4 7.3zm-2.3 0l-.6-7.3H84.9l.3 7.3h25zm445.2-96.9h-24.8v7.9h24.8v-7.9zm81.8 143.6h-25.3c.2 2.8.3 5.2.4 7.8h24.8c.1-2.8.1-5.1.1-7.8zM246.1 311.5h-24.8v7.1h24.8v-7.1zm472.6 169.7v-7.9h-24.9l.7 7.9h24.2zM164 337.5v-7.8h-24.5v7.8H164zm-81.5 45.7H58v7.4h24.5v-7.4zm2.3-.1c.2 2.8.3 4.8.4 7.4h24.4v-7.4H84.8zm27.2-.1l.6 7.6h24.8l-.5-7.6H112zm27.8 7.6H164v-7.3h-24.7l.5 7.3zm54.2 0h24.8v-7.3H194v7.3zm54.7-71.9h25l-.5-7.3h-24.5v7.3zm-.1 64.4v8h24.5v-8h-24.5zm-136.1-45.6h24.3v-7.9h-24.3v7.9zm-54.7-.1h24.6v-8H57.8v8zm215.4 189.5h-24.8l.4 7.6h24.5c-.1-2.6-.1-4.9-.1-7.6zm254.9-215.4h-24.9c.2 2.9.3 5.1.4 7.5h24.5v-7.5zm111.2-.1l.6 7.4h24.5v-7.4h-25.1zm27.8 79.5h24.4v-7.8h-24.4v7.8zm-109-72.1h25l-.5-7.3h-24.5v7.3zM503.2 383l.6 7.6h24.8l-.6-7.6h-24.8zm27.4 8h24.9v-7.9h-24.9v7.9zm109.4-.5h24.7c-.2-2.6-.3-4.9-.4-7.3h-24.9l.6 7.3zm-2.8-7.3h-24.7v7.3h24.7v-7.3zM194.1 283h25l-.5-7.3h-24.5v7.3zm336.6 35.8h24.7v-7.2h-24.7v7.2zm54.8-7.4v7.5h24.4v-7.5h-24.4zm109.3-.1l-1.9 1.6c1.6 2 3 5.5 4.8 5.7 7 .7 14.1.3 21.5.3-.2-2.8-.3-5-.4-7.6h-24zm-2.2 215.6c1.9 3.2 3 6.9 4.3 7 7.2.6 14.5.3 22 .3v-7.3h-26.3zM471.5 571h24.1v-8.2h-24.1v8.2zm220.2-62h-25c.2 2.6.3 4.8.4 7.5h24.6V509zM85.3 526.8v7.7h24.4v-7.7H85.3zm524.6-.3c-6.8 0-13 .2-19.1-.1-6-.3-6.8 2.5-5 7.6l24.2 1.1c-.1-3-.1-5.3-.1-8.6zm-106.7-251l.5 7.5h24.8c-.1-2.8-.3-5-.4-7.5h-24.9zm-365.3-.1c1.8 3.3 2.8 7.1 4.2 7.2 7.4.6 14.9.3 22.7.3l-.6-7.5h-26.3zm474.6 7.5h25.1c-.3-2.9-.4-5.1-.6-7.3h-24.5v7.3zm54.5 0h24.4v-7.2H667v7.2zM558 552.4h24.5v-7.6H558v7.6zM137.2 275.6h-25.1c.2 2.6.3 4.9.4 7.4h24.6c.1-2.6.1-4.7.1-7.4zm225.2 151.6h24.3V419h-24.3v8.2zm-30.1-61.8h-24.8c.2 2.9.3 5.4.4 8h24.4v-8zm225.8-82.5h25l-.6-7.3h-24.8c.2 2.6.3 4.7.4 7.3zm167.3 251.5h23.7v-7.5h-23.7v7.5zm-112.4.1h24.1v-8.1h-18.8c-4.9-.1-7.3 1.6-5.3 8.1zm-168.8-7.6c.3 2.9.4 4.9.6 7.2l23.4 1.1V527l-24-.1zM137.1 509h-25l.4 7.5h24.6V509zm587.8 0l.6 7.7h23.7V509h-24.3zm109.4 25.4H858V527h-23.7v7.4zM386.8 318.9v-7.5H363v7.5h23.8zm420.3 143.5h23.7v-7.3h-23.7v7.3zm-27.2-79.3v7.4h23.7v-7.4h-23.7zm-3.1 79.4l-.5-7.6h-23.5v7.6h24zm-.4-71.3v-8.1h-24.5l.5 8.1h24zm-51-.6h23.7v-7.3h-24l.3 7.3zm-229.3 0l-.6-7.5h-23.6v7.5h24.2zm143.6 125.9h24.6V509h-24.6v7.5zm-195-125.9h24.1l-.6-7.4h-23.5v7.4zm-3.2-7.5h-24.6l.7 7.7h23.5c.2-2.7.3-4.8.4-7.7zm-51.4 7.5h24.2l-.6-7.5h-23.6v7.5zm-54.4-.1H360l-.6-7.3h-23.7v7.3zm-3.4-7.3h-23.7v7.4h23.7v-7.4zm-51.5 7.3h24.6l-.5-7.5h-23.6l-.5 7.5zM749.1 455h-23.8v7.3h23.8V455zm54.8-17.8h-24.7l.6 7.9h24.1v-7.9zm-54.7 36h-24.3c.4 2.9.6 5.4.9 7.7h23.4v-7.7zM471.6 275.3v8h24.2v-8h-24.2zM807 373.4h24v-7.9h-24.6l.6 7.9zM414.4 508.9h-24.6l.5 7.9h23.5l.6-7.9zm416.3-189.6v-7.9h-24.1l1 7.9h23.1zm-54.3-7.9h-23.6v7.5h23.6v-7.5zM386.6 535.1v-8.6c-6.4 0-12.3.3-18.2-.1-6-.3-6.9 2.3-5.1 7.7l23.3 1zm-24-251.9H387c-.1-2.8-.3-5.1-.4-7.6h-24.1c.1 2.7.1 4.8.1 7.6zm386.8 28.5h-24.9l.9 7.6h24v-7.6zm-253.4-.3h-24.6l.8 7.7h23.4c.1-2.7.3-5 .4-7.7zm362 107.7h-23.6v7.3H858v-7.3zm-553-.1h-23.7v7.5H305V419zm3 7.4h24.6l-.5-7.5h-23.7l-.4 7.5zm51.4-7.2h-24l.3 7.3h24l-.3-7.3zm471.7-143.7h-24.7l.5 8H831c.1-2.9.1-5.3.1-8zM390 418.9v7.4h24.3l-.5-7.4H390zm51.1.1H417c.2 2.8.4 5.3.7 7.8h23.4V419zm27.2 0h-24c.2 2.6.3 4.8.4 7.5h23.6V419zm3.4 8.4c6 0 11.7-.4 17.3.1 6.9.7 8.5-2.1 6.5-8.4h-24.1l.3 8.3zm335.5-.9h24l-.3-7.5h-23.6c-.1 2.5-.1 4.7-.1 7.5zm-58-150.9h-23.8v7.3h23.8v-7.3zm30.6 143.3v7.5h24.1l-.6-7.5h-23.5zM308.4 318.8h23.9v-7.4h-23.9v7.4zm440.9 100.3h-23.7v7.4h23.7v-7.4zm108.8 43.2V455h-23.7v7.3h23.7zm-612.3 54.1V509h-24.3v7.4h24.3zm89.9-197.5h23.8v-7.5h-23.8v7.5zm-54.2-7.5c-.6.5-1.1 1.1-1.7 1.6 1.6 2 3 5.5 4.7 5.7 6.7.7 13.5.3 20.5.3v-7.6h-23.5zm355.6 204.9V509h-24.7v7.3h24.7zm221.1-204.8h-23.8v7.3h23.8v-7.3zm-413.6 7.3h23.9v-7.2h-23.9v7.2zm332.3 208.3h-24.6l.5 7.4h23.7l.4-7.4zm-610-10.6h24.7v-7.4h-24.7v7.4zm106.3-7.4h-24.5v7.4h24.5v-7.4zm144.2-190.2h23.8v-7.5h-23.8v7.5zM193.8 509l.4 7.4h24.5V509h-24.9zm111.1 17.9h-24.2l.6 7.6h23.6v-7.6zm-195.1-17.8h-25l.3 7.3h24.6c.1-2.2.1-4.5.1-7.3zm-27.4 7.3v-7.3H57.9v7.3h24.5zm448.5-7.3v7.4h24.5v-7.4h-24.5zm-309.4 25.3h24.8l-.3-7.4h-24.5v7.4zM558 516.6h24.7v-7.5H558v7.5zm194.2-241.1l.5 7.5h23.6v-7.5h-24.1zm-338.4 7.4v-7.3h-23.7v7.3h23.7zm-105-7.3l-1.8 1.8c1.6 1.9 3 5.2 4.8 5.4 6.7.6 13.5.3 20.5.3v-7.5h-23.5zm331 204.7h24.5v-7.2h-24.5v7.2zm-108.9-7.2v7.5h25l-.5-7.5h-24.5zm-337.1 0l.3 7.5h25l-.5-7.5h-24.8zm-2.2 0h-24.8v7.3h24.8v-7.3zm-52 7.4h25c-.2-2.7-.3-4.9-.4-7.3h-24.6v7.3zm579.3 28.6h-25l.6 7.2h24.4v-7.2zm-359.1 7.4c-.1-2.6-.3-5-.4-7.5h-23.5v7.5h23.9zM112.5 372.8h24.9l-.5-7h-24.8c.2 2.4.3 4.3.4 7zm-2.7-7.2h-25l.5 7.3h24.5v-7.3zm557.9 107.5c-.7.5-1.4 1.1-2 1.6 1.6 1.9 3.1 5.2 4.9 5.3 6.9.6 14 .3 21 .3v-7.2h-23.9zm-585.1.1H57.9v7.3h24.7v-7.3zm775.6 35.9h-23.9v7.3h23.9v-7.3zM246.1 329.7h-26.6c2.1 3.2 3.3 6.6 4.7 6.7 7.2.6 14.4.3 21.9.3v-7zM776.4 509h-23.8v7.5h23.8V509zM558 408.6h24.6v-7.2H558v7.2zM335.5 282.9h23.8v-7.3h-23.8v7.3zm301.7 82.8h-24.7v7h24.7v-7zm-51.9 6.7l24.5 1.1v-7.9h-24.5v6.8zm-56.9-6.8h-24.7v7.2h24.7v-7.2zm84.1-29.2l24.5 1.1v-7.9h-24.5v6.8zm-27.1.6h24.9l-.5-7.2h-24.7c.1 2.4.1 4.2.3 7.2zm-394 36.5v-8h-24.5v6.8l24.5 1.2zm140.9 153h-18.2c-5.5-.2-7.2 2.1-5 7.9h23.2v-7.9zm335.4-89.3c-.7.6-1.4 1.1-2 1.7 1.6 1.9 3 5.2 4.8 5.4 6.9.6 13.9.3 21 .3v-7.3l-23.8-.1zm51.3.2h-25.2l.9 7.2H719v-7.2zM109.8 329.6H85.2v7.3h24.6v-7.3zm555.2 0c2.2 3.3 3.4 6.7 4.9 6.8 7.2.6 14.4.3 21.7.3v-7.1H665zM416.9 534l24.3 1.1V527h-23.8c-.1 2.1-.3 3.9-.5 7zM194.2 365.6v6.8l24.5 1.2v-7.9l-24.5-.1zm-84.1 197.5H85.2v7.3h24.5c.2-2.2.3-4.3.4-7.3zm418.1 0h-24.6v7.3h24.6v-7.3zm191-190.4l-.4-7h-24.5l-1.4 1.7c1.6 1.8 3.2 4.9 4.9 5.1 6.8.5 13.7.2 21.4.2zm-250.7-97.2h-23.8v7.4h23.8v-7.4zM55.6 563c2.3 3.5 3.4 6.8 4.7 6.9 7.4.5 14.8.2 22.6.2l-.6-7.1H55.6zm193.6-197.5c-.6.6-1.2 1.1-1.8 1.7 1.4 1.8 2.8 5 4.4 5.1 7 .6 14 .2 21.3.2v-7.1l-23.9.1zm415.1-36.3c-6.6 0-12.9.2-19.3-.1-5.4-.2-6.7 2-4.7 7.3l24 1.2v-8.4zM305.1 508.9h-24.7l.9 7.6h23.8v-7.6zm27.1.2h-24.1l.4 7.3h23.7v-7.3zm253.2 60.8l24.4 1.1v-7.9h-24.4v6.8zM246 365.6h-24.9l.5 7.2H246v-7.2zm250.2 143.5h-24.4v7.3h23.9c.2-2 .3-4.1.5-7.3zm-331.9 54.2h-24.9l.3 7.1h24.6v-7.1zm.6-233.8c1.9 3.4 3 6.8 4.2 6.9 7.4.5 14.9.3 22.7.3l-.4-7.2h-26.5zm2.1 240.8h25l-.5-7.1h-24.8c0 2.6.1 4.5.3 7.1zm500.6-204.8c-.6.6-1.2 1.2-1.7 1.8 1.5 1.8 2.8 5 4.4 5.1 7 .6 14 .2 21.2.2v-7.1h-23.9zM468.5 509h-23.8v7.4h23.8V509zm89.9 60.9l24.2 1.1v-8.3c-6.7 0-13.1.2-19.5-.1-5-.1-6.4 2-4.7 7.3zm-309.2-6.8c-.6.6-1.2 1.1-1.7 1.7 1.2 1.8 2.4 5 3.8 5.1 7.2.5 14.4.2 22 .2V563l-24.1.1zm442.5.1h-26.6c2 3.2 3.1 6.5 4.3 6.6 7.4.5 14.8.2 22.3.2v-6.8zm-277.8-90.1h-23.8v7.5h23.8v-7.5zm-27.2 36.1h-24.2l.5 7.3h23.7v-7.3zm417.1-36.1h-24.1v7.3h24.1v-7.3zm-201.6 80.4c-.4 6.8 2.6 7.9 7.6 6v-14.1h-25.6c8.8 4.1 17.5-1.2 23.7 4.4l-.3 2.1h-21.9c0 .5 0 1 .1 1.5l16.4.1zm177.7-37.1h23.9V509h-23.9v7.4zm-498.4-43.3c-.6.7-1.2 1.3-1.8 2 1.6 1.8 3.2 4.9 5 5.1 6.7.6 13.4.2 20.4.2v-7.3h-23.6zm163.1 7.4h23.8v-7.4h-23.8v7.4zm-109.1 0h23.8v-7.2h-23.8v7.2zm522.6.6v-8h-23.7v6.9l23.7 1.1zM807 444.2l23.8 1.1v-7.9H807v6.8zm-58.1-27.9V404c-6.9 0-13.3-.1-19.7.1-1.4.1-2.7 1.6-4 2.5 1.4.9 2.7 2.4 4.2 2.6 3.9.4 7.9.1 12.2.1l1 7.1c2.2-.1 4.2-.1 6.3-.1zm-253.5-42.8v-7.8h-24.1l.7 6.7 23.4 1.1zm.3 99.8h-24.2l.5 7.2h23.7v-7.2zm-160-101l23.8 1.1v-7.9h-23.8v6.8zm.6-35.3h23.5c-.2-2.5-.3-4.8-.5-7.8h-18.8c-5.2-.2-5.9 2.4-4.2 7.8zm388.6 226.1l.6 7.4h24c-.1-2.6-.3-4.9-.4-7.4h-24.2zM441 372.6v-6.9h-26.2c2.8 3.4 4.2 6.5 5.8 6.6 6.6.7 13.4.3 20.4.3zm3.2-43.1l.5 7 23.6 1.2v-8.1l-24.1-.1zm-162.5 36l-1.8 1.8c1.5 1.8 2.8 4.9 4.4 5.1 6.7.6 13.5.2 20.5.2v-7.1h-23.1zm104.9-35.9H363v6.8l23.6 1.1v-7.9zm420.5 6.8l24.3 1.1-.4-7.8h-23.8c-.1 2.4-.1 4.3-.1 6.7zm-27.2.5h23.8v-7.2h-23.8v7.2zm-3.7.7v-8h-23.4v6.9l23.4 1.1zM390.1 570.4h23.7v-7.2h-23.7v7.2zm0-233.4h24.2l-.5-7.2h-23.7v7.2zm-168.4 48.5l-.6 3.2c7.6 4.6 16.5.9 25.3 2.6-.3-3.4-.5-5.9-.6-8.3h-22.7v1h19.7v1.4l-21.1.1zm527.5-19.9h-24.3l.6 7.2h23.7v-7.2zm3.4-.1v6.9l24.3 1.1-.6-8h-23.7zm-282.9-36c2.1 3.3 3.2 6.7 4.5 6.8 7.1.5 14.3.3 21.9.3l-.6-7-25.8-.1zM834.9 563l-1.8 1.8c1.4 1.8 2.8 4.9 4.4 5.1 6.7.6 13.4.2 20.5.2V563h-23.1zM753 437.2l-1.7 1.7c1.5 1.8 2.8 5.1 4.4 5.2 6.7.6 13.6.3 20.6.3v-7.2H753zm-366.2-71.5h-24.3c.2 2.6.4 4.6.7 7.2h23.6v-7.2zm393.5-.2c-.6.6-1.1 1.2-1.7 1.8 1.5 1.7 2.8 4.9 4.4 5 6.7.6 13.4.2 20.4.2v-7.1l-23.1.1zm-339 107.8h-24.4l.8 7.2h23.6v-7.2zm416.8-99.8v-7.9H834l.5 6.8 23.6 1.1zm-81.6 189.7h-24.4a199.18 199.18 0 0 1 .7 7.3h23.7v-7.3zm-471.3-234c-6.9 0-13.1.2-19.2-.1-5.4-.2-6 2.4-4.4 7.2l23.6 1.1v-8.2zm31 241.2h23.6l-.4-7.7h-18.7c-5-.2-6.3 2.1-4.5 7.7zm108.5-.5l23.5 1.1v-8h-23.5v6.9zm-3.4-6.7h-24.1c.2 2.6.3 4.5.4 7.2h23.7v-7.2zm-132.9 6.6L332 571v-7.8h-23.9l.3 6.6zm327.7-65.1h-23.6c.1.6.1 1.2.2 1.8h24.5c0-4.1.2-7.7-.1-11.2-.2-1.6-1.5-4.3-2.4-4.4-7-.4-14.1-.2-21.1-.2 0 .8.1 1.7.1 2.5 4 0 8 .3 11.9-.1 7.3-.7 10.4 2.7 10.5 11.6zm113.6-59.8c-.4-2.7-.9-5.1-1.2-7h-22.3c0 .6 0 1.2.1 1.8h19.9v1.5l-21.2 1.3c.1.8.1 1.6.2 2.4h24.5zm-615.9 29.3l-.3 1.2c-5.9 0-11.8-.1-17.7.1-1.2 0-2.4 1.4-3.6 2.1 1 .9 2.1 2.6 3.1 2.6 7.2.2 14.4.1 21.6.1 1.5-5.6-.6-7.8-6.4-7.4-5.2.4-10.5.1-15.7.1v1.2h19zm451.8 1.2l-.6 3.1c7.8 3.8 16.6 1.2 25.7 1.6-.9-3-2.4-6.5-4.3-6.7-6.1-.8-12.3-.3-18.5-.3v1.2h18.9v1.1h-21.2zm54.5-35.8l-.6 3.2c7.9 3.5 16.6 1.1 25.4 2.6l-.8-8h-21.8v.8h18.3v1.3l-20.5.1zm24.2 125c-7.5 0-14.1-.2-20.7.1-1.4.1-2.7 1.9-4 2.9.9.9 1.8 2.4 2.7 2.4 7.2.2 14.5.1 22.1.1-.1-1.6-.1-3.6-.1-5.5zm55.3-101.2c-1.1-3.4-1.8-8.1-2.8-8.2-7.2-.7-14.4-.3-21.6-.3 6.9 4.7 15.3-.4 21.7 4.9-.1.7-.1 1.4-.2 2.2h-19.6c0 .5.1 1 .1 1.5l22.4-.1zM441.1 331.3c-7.4 0-13.9-.2-20.4.1-1.2.1-2.4 2-3.6 3.1 1.2.7 2.4 2.1 3.7 2.1 6.7.2 13.4.1 20.3.1v-5.4zm-48 120.4h1.2l.8-14.2h-19l1.1 13.6h.7l1.5-11.5c.5.1 1.1.1 1.6.2l1.8 11.6c1.1-2.3 1-4.4 1.2-6.6.1-1.9.6-3.7.9-5.6.5 0 1.1.1 1.6.1l1.2 12.4c.4 0 .7-.1 1.1-.1l1.4-12.3c.7.1 1.3.1 2 .2.4 3.9.6 8 .9 12.2zm20.8-85.2l-7.4.5c-4.5.2-9 0-13.4.5-1.2.1-2.2 1.8-3.2 2.8 1.2.8 2.3 2.3 3.5 2.3 6.7.2 13.5.1 20.5.1v-6.2zM139.7 552.8c-.1.8-.1 1.5-.2 2.3l24.8 4.8v-7l-24.6-.1zm610.9-297.4c-.4.8-.7 1.6-1.1 2.5 6.2 5.5 14.5 1.3 21.7 2.3 1.2.2 2.8-2.1 4.1-3.2-.4-.5-.8-1.1-1.2-1.6h-23.5zm-27.9.2c1 5.1 1 5.2 17.7 4.7 2.8-.1 7.8 2.2 6.9-4.7h-24.6zM393 582.3v.3h95v-.3h-95zm-57.4-227.7c0 .7-.1 1.4-.1 2.1l24.1 5.6v-7.7h-24zM819 390.7v.4c3.1 0 6.2.2 9.2-.1 1-.1 2-1.4 3-2.2-1-1-1.9-2.8-2.9-2.9-6.2-.3-12.4-.2-18.5 0-.9 0-1.8 1.5-2.7 2.3.9.8 1.8 2.2 2.8 2.3 2.9.4 6 .2 9.1.2zm-16.3-71c.6-.6 1.2-1.2 1.9-1.8-1.2-1.4-2.3-3.9-3.6-4-7-.4-14.1-.2-21.1-.2-.2 1.2-.3 2.3-.5 3.5 7.1 4 15.8.3 23.3 2.5zM60.3 425.4c0 .7 0 1.4.1 2.2 5 0 9.9-.2 14.9.1 7.1.4 8-.7 6.5-8h-23v1.2l22 1.8c-.1.9-.1 1.8-.2 2.7H60.3zm408.4-124.6c-8.7.7-16.5-1.1-24 2.4l23.5 5.4c.2-2.2.4-4.5.5-7.8zm223.9 231.1a32.57 32.57 0 0 1-1.7-2.2c-6.4 0-12.9-.1-19.3.1-1.6.1-3.1 1.3-4.7 2 1.4.9 2.7 2.4 4.1 2.5 5.7.6 11.4.9 17 .8 1.6-.1 3.1-2.1 4.6-3.2zM140.9 318.1v.9h23.4l-.4-7h-25.6c9 4.1 17.7-1.5 23.9 6.1h-21.3zm554.2 65.1c6.8 4.5 15.4-.5 21.7 6.5h-20.6c5.4 1.6 10.8 1.4 16.2 1.7 7 .5 7.4-2.9 5.5-8.2h-22.8zm82.1 94.5c-.4-.5-.8-1.1-1.3-1.6h-23.1c-.2.8-.3 1.6-.5 2.4 6 4.7 14.1.7 20.8 2.5 1 .2 2.7-2.2 4.1-3.3zm-584.6 57.4c-1.4-3.4-2.3-7.8-3.6-7.9-7.1-.7-14.2-.3-21.3-.3 6.9 4.5 15.9-.7 21.9 7H168v1.2h24.6zm53.8-172.8l-.3-6.8h-24.8c0 .5-.1 1-.1 1.5l25.2 5.3zM110.1 358l-.5-10.3H84.7c8.6 5.2 21.8-4.9 25.4 10.3zm412.1 267.2c.8-.1 1.7-.1 2.5-.2-1.7-8.8 5.3-18.3-.9-26.8-1 .1-2 .1-2.9.2l1.3 26.8zM554.5 303c.7-.3 1.4-.5 2.1-.8-1.3-2.9-2.2-8.1-3.9-8.3-7-.9-14.1-.4-22.7-.4 8.4 6.3 20.5-3.7 24.5 9.5zM195.2 490.6c7.4 5.5 18.9-3.1 24.1 9.4-.7-3.6-2-8.7-4-9-6.5-1.1-13.3-.4-20.1-.4zm332.9-238c-3 5.6-5.6 2.4-8.9 1.6-5.2-1.2-10.9-.3-17-.3 4.6 5.2 23.4 4.9 25.9-1.3zm138.1 149c9.1 5.4 20.6-3.4 25.7 8.6l-.6-8.6h-25.1zm-420.5 10v-9.8h-25.2c8.6 5.4 20.2-3.8 25.2 9.8zm222.6 4.7v-7.8h-22.9v1.3h16c-1.7 6.6 1.4 7.7 6.9 6.5zM332.1 545.1H308c7.8 5.9 19.5-4 24.1 10.2v-10.2zm471.7-189.9c-.2-2.5-.3-5.1-.4-7.3h-23.6c7.7 5.1 18.5-3.9 24 7.3zm-27.6 190h-24.1c8.1 5.5 19.3-3.7 24.1 9v-9zM335.1 401.6c8.3 5.7 19.7-3.5 24.5 8.4-.1-2.7-.3-5.3-.5-8.4h-24zM613 313.2l24 1.6c-1.6-4.1-13.9-5.4-24-1.6zM82 278.9c-.2-4-10.9-5.5-23.8-1.6l23.8 1.6zm724.6 122.9c8.3 5.3 18.7-3 24.9 9l-1-9h-23.9zm-278.9 74.6c-1-3.8-12.8-5.2-23.6-1.3l23.6 1.3zM249.6 331.6l23.1 1.2c-1.3-4.1-8.8-5.2-23.1-1.2zm-191.1 197l23.6 1.7c-.5-4.2-12.5-6-23.6-1.7zm214.7-250c-.2-.6-.6-2.9-1-2.9-7.6-.2-15.3-.2-22.9-.2 0 .6 0 1.3-.1 1.9l24 1.2zm-.4 197.8c-1.2-3.9-16.3-5.4-24.9-1.3l24.9 1.3zM664 530.3c-.9-4.3-12.1-5.8-24.1-2l24.1 2zM531.6 367.4l23.8 1.4c-2.3-3.9-13.2-5-23.8-1.4zm132.6-89.9c0-.5.1-1 .1-1.5h-23.8v1.5h23.7zm117 287.5l22 1.3c-.6-4-11-5.4-22-1.3zM391 313.3l22.8 1.2c-1.5-3.9-8.7-4.7-22.8-1.2zm26.9 197.5l22.9 1.3c-1.4-3.7-12-4.8-22.9-1.3zm-86.2-178c.2-.6.4-1.3.6-1.9-7.3-3.2-15.2-1-22.7-1.4-.1.7-.1 1.3-.2 2l22.3 1.3zm503.9-3.4c0 .7-.1 1.4-.1 2.1l22.4 1.2.3-2.1c-7.3-2.8-15.1-.7-22.6-1.2zM386.2 475.8c-1-3.4-15.6-4.6-22.5 0h22.5zm-49.9-126.7l22.6 1.2c-.7-3.9-7.1-4.9-22.6-1.2zm109.2 54.3l22.6 1.1c-1.6-3.8-9.4-4.7-22.6-1.1zm-224.1 11.2v1.6H246v-1.6h-24.6zm334-105.9v-1.5h-24.6v1.5h24.6zM167 389.4v1.3h24.4v-1.3H167zm668.4-5.7v1.6h22.4v-1.6h-22.4zm-171.1-10.4v-1.4h-24.6v1.4h24.6zM218.5 534.8v-1.4h-24.2v1.4h24.2zm394.1 34.4c0 .5 0 .9.1 1.4h24.4v-1.4h-24.5zm-391.3-.2c0 .5.1.9.1 1.4h24.5V569h-24.6zM85.2 281.8v1.4h24.5v-1.4H85.2zm606.5 134.4v-1.6h-24.5v1.6h24.5zm-163.6-79.1v-1.4h-24.6v1.4h24.6zm-334-1.4c0 .4 0 .9.1 1.3h24.5c0-.4 0-.9-.1-1.3h-24.5zm86.6-54.6v1.7h24.4v-1.7h-24.4zm358.8.1c0 .6 0 1.1.1 1.7h25v-1.7h-25.1zM194.2 504.6c0 .5 0 1 .1 1.6h24.5v-1.6h-24.6zm497.4-185.3c0-.5-.1-.9-.1-1.4h-24.4v1.4h24.5zm-609.3-.2v-1.3H57.9v1.3h24.4zm503 196v1.4h24.6v-1.4h-24.6zm-171.7 14.8c-1.1-4-13.1-5.4-23.9-1.4l23.9 1.4zM282.1 276v1.2h22.6c0-.4 0-.8.1-1.2h-22.7zm552.9.1c0 .3-.1.6-.1.8h22.9c0-.3.1-.6.1-.8H835zM830.4 475v-1.2h-22.6v1.2h22.6zm.1 35.9c0-.5 0-1 .1-1.5h-22.9v1.5h22.8zm27.7-120.2v-1.8h-23.9v1.8h23.9zM554.8 256.3c-.4-1.1-.8-2.2-1.1-3.4l-10.3 2.5 1.8 4.7 9.6-3.8zM858.2 283v-1.7h-24v1.7h24zm-78.1-1.1c0 .4-.1.9-.1 1.3h23.3v-1.3h-23.2zM807 479v1.7h23.9V479H807zM440.9 283.5v-1.3h-23.2v1.3h23.2zM308.6 479.3v1.4h23.5v-1.4h-23.5zm27.2-64.7v1.5h23.6v-1.5h-23.6zm-26.9.3v1.3h23.2v-1.3h-23.2zM807 514.7v1.8h23.9v-1.8H807zm-420.5 55.9c0-.3 0-.7.1-1h-23.4c0 .3 0 .7-.1 1h23.4zm81.8-197.3v-1.4h-23.7v1.4h23.7zm307.9 186.8v-1.6h-23.4v1.6h23.4zm-467.6-1.8v1.4H332v-1.4h-23.4zm498.7-143.6v1.6h23.6v-1.6h-23.6zm-3.9-52.1V361h-23.1v1.6h23.1zm55.2-8.6c-3.2 1.1-5.5 1.3-7 2.6-.8.7-.7 4 0 4.5 1.6 1.1 4 1.2 6.5 1.8l.5-8.9zm-139-101.5c.7-.1 1.4-.1 2.1-.2.4-3.5 1-7 .9-10.5 0-1.2-2-2.4-3.1-3.5-.9 1.4-1.7 2.9-2.6 4.3.5.2.9.4 1.4.7.7-.6 1.4-1.1 2.1-1.8l-.8 11z"/><path d="M601.9 631.6l3.3-31.3h1.9v31.5c7 .5 6.1-3.9 6.1-7.1 0-5.7-.4-10.9 7.3-12.5 1.5-.3 1.7-6.7 2.7-11.1h12.7v30.8c8.9 0 16.9.2 24.9-.2 1-.1 2.6-3 2.7-4.7.3-6-.4-12 .1-17.9.4-5.2 1.9-10.2 3-15.3 1.1-.1 2.1-.1 3.2-.2.8 2.3 2.2 4.6 2.2 6.9.2 8.6-.2 17.2.1 25.8.1 2 2 5.5 3.2 5.6 14.2.4 28.5.3 42.8.3 2.4-13.3-3.6-26.7 5.7-40.1 1.5 3.3 3.1 5.2 3.2 7.3.3 10.5.1 20.9.1 32.1h47.1c0-6.3-.3-12.8.1-19.4a68.51 68.51 0 0 1 3.7-18.2c7 5 4.6 11.8 4.8 18 .2 6.4 0 12.8 0 20.3l43.6-.2c1.2 0 3.2-3.1 3.3-4.8.4-5.2-.3-10.5.2-15.7.6-5.8 2.1-11.5 3.1-17.2 1.1 0 2.2-.1 3.4-.1.7 2.4 1.8 4.7 1.9 7.1.2 8.8-.1 17.7.1 26.5 0 1.5 1.4 2.9 2.2 4.3 1-1.5 2.7-2.9 2.8-4.4.3-7.1.1-14.3.1-21.1l14.9 20.8c.5-.1 1.1-.1 1.6-.2l1.2-14.2h1.2v17.3c3.4-13.1-1.5-27.1 5.9-39.9 4.3 13.4 1.5 27.4 3.1 40.7.7.5 1.1.9 1.5.9 12.8 1.3 12.8 1.3 12.8-11.2 0-2.9-.4-5.8 0-8.6.8-6 2-12 3-18 1.2 0 2.4.1 3.7.1 4.8 11.8.2 24.6 2.5 37.4h39.6c2.7-12.4-4.4-26 6.1-38.7 1.1 2.7 2.6 4.6 2.7 6.6.2 10.4.1 20.9.1 32.5h29.1v2.5h-21.6c-48.7 0-97.3 0-146-.1L608 634c-2 0-4-1.5-6.1-2.3.2-.3 0-.1 0-.1z"/><path d="M602.1 631.4l-11.8 3.2c-.1-.6-.3-1.2-.4-1.8l8.2-1.2-3.3-6.1c6.1-1.8 7.4 1.2 7.1 6.1l.2-.2zM516.2 690l-.3-.2.4-.1z"/></g><path d="M54.8 586.2c2.3.3 4.6.9 7 .9H329l166.2.4c7.2.1 14.5 5.1 21.5 8.3 1.2.6 1.7 3.7 1.7 5.6.2 6.4.1 12.9.1 19.3-.1 12.3-.8 12.8-13.2 10.1l-2.1-36c0-.5-1.4-.9-2.3-1.4-6.9 6.8-5.1 15.1-5 23 .1 15.6.1 15.6-15.2 15.6-9.8 0-19.6-.1-29.4-.2-.6 0-1.3-.4-2.2-.7-1.7-12.4 1.8-25.2-2.4-39.1-11.1 12.9-4.2 26.7-7.3 39.4h-47V594c-5.9 4-8.8 8.3-8.2 14.5.5 5.2-.2 10.5.3 15.7.5 5.8-1.2 8.1-7.4 7.9-13.1-.4-26.1-.1-40.7-.1v-37.7c-12.9 10.5-4.9 24.6-8.6 37.2h-45.6l-1.9-36.4c0-.5-1.5-1-2.5-1.7-8.6 11.7-3 25-4.9 38h-46.5v-19.3c0-6.2 1.4-12.7-3-19.1-11 11.8-3.5 25.7-6.4 38.9-6.2 0-12.6.3-18.9-.2-1.2-.1-2.9-3.3-3-5.2-.4-6.8-.1-13.6-.1-20.4h-2.2l-1.1 22.7-15.5-22c-.3 6-.5 12.7-1.1 19.3-.2 2-1.5 3.8-2.3 5.7-.9-2.1-2.4-4.1-2.4-6.2-.1-8.3.4-16.7.3-25 0-2.4-1.5-4.9-2.9-8.9-9.8 13.4-3.8 27-6.2 39.8h-46.4c-1.9-12.6 2.8-25.7-2.7-38.8-7.6 7.1-6.4 14.6-6.3 21.9.3 17.5.3 17.5-17.4 17.5H65.9c-2.4-13 2.4-26-2.5-39.5-5.4 5.7-7.6 10.7-6.8 17.1.5 4 .2 8.1.4 12.2.6 10.9.3 11.2-11.5 9.7v-15.7c11.3-1.7 4-10.6 6.9-17.8l-6.6 5.4v-23.4c7.4-2.9 8.4-8.9 2.1-14.8-1.4-1.3-1.7-3.7-2.5-5.6-.2-.4 0-.9 0-1.4v-13.9c11.3-2.2 4.4-10.9 6.5-17.6l-6.3 5.4v-24c11.4-1.5 3.9-10.6 6.3-16.4l-6.2 2.4v-21.9h8.6v41.9l-.1 60.9c-.1 6.2 2.2 7.4 7.9 7.4l317.3-.1c1.9 0 3.8 0 5.7.2l-329.8.5c-.3.9-.4 2-.5 3.1zM413.6 440c2.2-1 4.4-2.7 6.7-2.7l92.4-.1h10.9l-.8 14.3h-.9l-1.3-12.3c-.6 0-1.2-.1-1.7-.1l-1.5 11.8h-1l-.9-11.5c-.6-.1-1.3-.1-1.9-.2l-1.3 12.1c-.4 0-.7 0-1.1.1l-1.3-12.2-1.7-.2-1.4 12.1c-.2 0-.5 0-.7.1l-1.7-11.7-1.7-.2L501 453l-1.7-13.6c-.6 0-1.2-.1-1.8-.1l-1.4 12.3h-1l-.9-12.2-2-.2-1.1 12.1c-.3.1-.7.1-1 .2l-1.6-12.3c-.5-.1-1-.1-1.5-.2-.4 1.8-.9 3.7-1 5.6-.2 2.1 0 4.2-1.1 6.5l-1.8-11.6c-.5-.1-1-.1-1.5-.2l-2 13.6-1.7-13.3-1.7-.2-1.5 12c-.4 0-.7-.1-1.1-.1l-.7-12.2c-.6-.1-1.3-.1-1.9-.2l-1.5 12.4c-.3 0-.6.1-.9.1l-1.4-12-1.7-.2-1.7 13.8-2.1-13.8H460l-1.3 11.5c-.2 0-.4.1-.6.1l-1.4-11.4h-2l-1.1 11.8h-1.1l-1-12c-.6 0-1.3-.1-1.9-.1l-1.3 12.5c-.3.1-.7.1-1 .2l-1.4-12.4c-.5 0-1.1-.1-1.6-.1l-1 5.6c-.2 2.1 0 4.2-1 6.5l-1.8-11.8c-.5 0-1 0-1.6-.1l-1.6 11.4c-.2 0-.4.1-.6.1l-1.3-11.4h-1.8l-1.4 12.3c-.4 0-.8 0-1.2-.1l-.9-12.2c-.6-.1-1.2-.2-1.8-.2l-1.9 13.7-2.1-13.8h-1.8l-1.3 12.1c-.2 0-.4.1-.6.1l-1.5-12.2h-1.9l-1.4 11.8h-.8c-.6-3.7-1-7.4-1.4-11.1h0zm-189.1-2.6l-1.7 14.1c-.3.1-.7.1-1 .2l-1.2-12.3-1.7-.2-1.8 13.9-2-13.5-1.4-.3-1.2 5.9s-.3 4.1-1.2 6.1l-1.2-11.6c-.7 0-1.3-.1-2-.1l-1.2 11.7h-1.1l-1-12c-.6-.1-1.3-.1-1.9-.2l-1.3 12.5c-.4 0-.7.1-1.1.1l-1.2-12.2-1.7-.2-1.5 12c-.2 0-.4 0-.6.1l-1.6-11.7-1.7-.2-2 13.3-1.5-13.1-1.7-.2-1.5 11.4c-.3 0-.7.1-1 .1l-1.1-11.8c-.6 0-1.2-.1-1.8-.1l-1.3 11.9c-.3.1-.7.1-1 .2l-1.5-11.7-1.7-.2-1.3 11.7c-.2 0-.4.1-.6.1l-1.6-11.9c-.6-.1-1.2-.1-1.8-.2l-1.9 13.4-1.7-12.9h-1.9l-.9 11.8c-.4 0-.8 0-1.2.1l-1.1-12c-.6-.1-1.2-.1-1.8-.2l-1.5 12.1c-.2 0-.4.1-.6.1l-1.8-12.3h-1.8l-1.2 12.1c-.2 0-.4.1-.6.1l-1.4-12.3-1.7-.2-1.8 12.3h-.7l-1.2-11.9c-.6 0-1.2-.1-1.8-.1l-1.2 12c-.3.1-.7.1-1 .2l-1.5-12.2c-.6 0-1.1-.1-1.7-.1l-1.3 11.8c-.3.1-.5.1-.8.2l-1.6-11.7c-.6-.1-1.2-.1-1.8-.2l-1.3 11.6c-.2 0-.4.1-.6.1l-1.4-11.6-1.7-.2-1.8 11.5h-.7v-13.7h86.5c4.3 0 8.5.3 12.8.4-.5.4-.6.2-.6.2zm147.1 14.7l-.7-12.5c-.6-.1-1.3-.1-1.9-.2l-1.6 12c-.3 0-.6 0-.9.1l-1.3-12c-.6 0-1.2-.1-1.9-.1l-1.5 13.9-2.3-13.7c-.5 0-1-.1-1.5-.1l-1.6 11.9c-.2 0-.4.1-.6.1l-1.4-11.8c-.6 0-1.2 0-1.8-.1l-1.4 12.5h-1l-.9-12.6c-.6 0-1.2-.1-1.9-.1l-1.4 12.2c-.3 0-.7 0-1 .1l-1.5-12c-.6 0-1.2-.1-1.7-.1l-1.5 13.7-2.2-13.7h-1.7l-1.5 11.9h-.7l-1-11.6c-.7 0-1.4-.1-2.1-.1l-1.3 11.7h-1.1l-.8-11.8c-.7 0-1.3-.1-2-.1l-1.4 12.3h-1.1l-1.3-12.1c-.6 0-1.2-.1-1.7-.1l-1.6 13.7-2-13.1c-.5-.1-1.1-.2-1.6-.2l-1.7 11.4h-.6l-1.2-11.3c-.6-.1-1.2-.1-1.8-.2l-1.5 12c-.4 0-.7 0-1.1-.1l-.8-12.1c-.6 0-1.3-.1-1.9-.1l-1.3 12.4c-.3.1-.6.1-.9.2l-1.6-12.4c-.6 0-1.1 0-1.7-.1l-1.4 12c-.2 0-.4.1-.6.1l-1.6-12.1c-.6 0-1.2-.1-1.8-.1l-1.6 11.9h-.6l-1.1-11.7h-2l-1.1 11.9c-.4 0-.8.1-1.2.1l-1-12c-.6-.1-1.3-.1-1.9-.2l-1.3 12.1c-.4 0-.7.1-1.1.1l-1.2-14h93.7v14.4c-.6-.4-1.2-.3-1.7-.2zm550.5 130.5H501.8v-.4H922c0 .2.1.3.1.4zm-339.4-40.1H558v-15.6h24.7v15.6zm111.5-233.7v-15.4h24.6v15.4h-24.6zm-386.2.1v-15.6h24.1v15.6H308zm443.9 181.4c7.6 0 14.5-.2 21.2.2 1.3.1 3.5 2.3 3.7 3.7.5 3.9.2 7.9.2 12.6-7.6 0-14.4.2-21.2-.2-1.4-.1-3.5-2.3-3.7-3.7-.5-3.8-.2-7.8-.2-12.6zm-389.3.5h24.3v15.6h-24.3v-15.6zm-3.2 15.7h-23.7v-15.6h23.7v15.6zM85.3 308.7v-15.5c7.1 0 14.4-.2 21.7.2 1.1.1 2.9 2.3 3 3.7.4 3.7.1 7.5.1 11.6H85.3zm524.5 53.9h-24.3v-15.4h24.3v15.4zm-391-15.5v15.3h-24.7v-15.3h24.7zm472.7 212.4h-24.3v-14.6h24.3v14.6zm-54.2-212v14.7c-7.4 0-14.7.2-21.9-.2-1 0-2.6-2.4-2.8-3.9-.4-3.5-.1-7-.1-10.6h24.8zm-109.1 54V416h-24.4v-14.5h24.4zm-255 143.6v15h-24.5v-15h24.5zm-109-143.5v14.5H140v-14.5h24.2zm-54.3 143.3V560H85.2v-15.1h24.7zm170.6-197.7h24.4v14.6h-23.2l-1.2-14.6zM725 362.5v-15.3h24.3v15.3H725z"/><path d="M224.6 437.6h52.2v13.6c-.4 0-.7.1-1.1.1l-1.6-11.9h-1.9l-1.5 11.9h-.8l-.9-11.7c-.6 0-1.3-.1-1.9-.1l-1.4 11.7c-.3 0-.7.1-1 .1l-1.2-11.9c-.6 0-1.2-.1-1.8-.1l-1.3 11.9c-.2 0-.5.1-.7.1l-1.9-11.9c-.5 0-1.1-.1-1.6-.1l-1.7 13.3-2-13.1h-1.9l-1.1 12h-1.1l-1-12h-2.1l-1.1 11.9c-.4.1-.7.1-1.1.2l-1.3-12.3c-.6-.1-1.2-.1-1.8-.2l-1.4 12.1c-.2 0-.4 0-.6.1l-1.7-11.7-1.7-.2-1.8 13.5-1.7-13.5c-.6 0-1.2-.1-1.8-.1l-1.7 12.5-3.3-14.4c.2 0 .3.2.3.2zm610.1-128.9v-15H858v15h-23.3zM441.2 545.1V560h-23.7v-14.9h23.7zm338.6-128.7v-14.9h23.8v14.9h-23.8zm54.4 143.5v-15h23.9v15h-23.9zM390.3 401.4h23.4v15h-23.4v-15zm-250.6 89.4h24.5v15.5l-24.5-5.9v-9.6zm219.6-197.2v15h-23.1l-1-15h24.1zm-9.6 7.1c-3.9 2.3-6.7 3.9-9.3 5.3h12.2l-2.9-5.3zM667 490.9h24.6v15.8c-2.2-.1-5.3.4-5.6-.4-2.9-6.3-8.1-4-12.8-3.9-6.4 0-7-1.2-6.2-11.5zm-26.8 53.9h23.9v15.6l-6.8-1.6c-2.4-.6-4.8-1.8-7.2-1.9-6.7-.3-10.7-4.9-9.9-12.1zm-82.3-71.6h24.7v15.9l-7.4-2.9c-2.2-.7-4.4-1.4-6.7-1.4-10.6-.3-10.6-.2-10.6-11.6zm27.8-71.8h24.2v15.8l-7.3-2.6c-2.6-.8-5.3-1.8-8-2-9.8-.6-9.8-.5-8.9-11.2zm106.5 143.4h26.4v15.1c-6.2-.9-12.9-.9-18.6-3.3-3.2-1.4-4.6-6.8-7.8-11.8zm-221-53.9h24.7v15.3l-24.2-6.1-.5-9.2zm-361.3 0v14.7c-6.1 2.8-8.2.1-7.7-5.8h-17v-8.9h24.7zm421.6 53.9h23.8v16.3l-10.6-4.2 3.2-2.1-.4-1.9c-3.2.3-6.5.4-9.7 1.1-1.2.2-2 1.9-3 3 .1-1.1.8-2.4.3-3.1-1.7-2.6-3.8-4.9-5.8-7.4a32.57 32.57 0 0 1 2.2-1.7zm-360.7 10.4c-1-1-2.4-1.8-2.9-3-.9-2-1.1-4.3-1.8-7.2h25.2v14.8h-6.4l-1.4-6.4h-9.3l-.3 1.3 5.1 2.1h-9.5c.4-.5.9-1 1.3-1.6zm-3.4-64.4h23.9v15.4c-2.9.3-6 2.5-7.3-3.1-.4-1.7-3.8-3.5-6-3.6-1.9-.2-4 1.9-6 2.9l-6.6-9.6c.8-.7 1.4-1.4 2-2zm65.4 65.7l4.6-.7c.3-.1.4-.7 1.5-2.8l-12.1 1.3-.1 2.2-7.4-11.5H246v15.8l-13.2-4.3zm412.8-52.8l-8.2-12.7h26.9v15.4h-5.6c-10.9-7.9-10.9-7.9-13.1-2.7zm-96.9-87.3l-1.8-6c-7.9-1.7-7.9-1.7-9.8 3.5l-8.8-12.4h27v14.9h-6.6zM803.8 491v14.8c-5.7 2.3-7.6-.5-7.8-5.8h-16.3l-.5-9h24.6zm-283.7 61.9l-12.3 2.4-4.4-3.2v-7.2h24.7v14.6l-6.2.9-1.8-7.5zm-407.6-54.3v-7.8h24.3v16.6c-2.7-1.2-6.6-1.9-6.7-3.1-.8-6.2-5-5.3-9-5.3l-8.6-.4zm472.8.5V491h24c2.6 12.4 1.6 15.3-5.6 15.3-.5-2.1-1-4.3-1.8-7.2h-16.6zM109.8 347.2h27.1v16.4c-3-1.8-6.1-2.5-7.3-4.5-2.9-4.4-6.1-5.1-11.6-.5l-8.2-11.4zm418.3 160.5c-2.8-1.4-6.4-2.2-6.5-3.3-.5-6.3-4.8-5.5-8.8-5.5h-9l-.6-8h24.9v16.8zM246 490.8v15.1c-3.5.8-6.6 2.1-7.5-3.3-.2-1.4-3-3.2-4.7-3.5-3.9-.5-8-.2-12.3-.2v-8.2l24.5.1zm391.1-182l-6.2.3-1.8-7.3-16.4-.8-.8-7.7h25.2v15.5zm-24.4 236h24.2v15.6c-2.4-.5-4.6-.7-6.7-1.4s-4.1-1.9-5.6-2.6l4.5-1.1v-1.8l-9.8-.6c-5.2.2-8.4-1.3-6.6-8.1zM57.9 553v-8h24.7v14.4c-5.8 2.3-8.4.1-8.4-6.4H57.9zm54.5-8.2h24.4v15.1h-6.7l-2.1-7.4h-15.7l.1-7.7zM80.7 363.6l-6-5.1c-1.5-1.1-3-2.7-4.7-2.8-3.9-.4-7.8-.1-12-.1v-8.3h24.6v14.2c-.7.7-1.3 1.4-1.9 2.1zm583.6 54l-10.7-4 5.6-3.3c-4.5-.6-7-1.4-9.3-1-1.6.3-2.8 2.3-4.4 3.8-1.8-2.8-4.3-6.5-7.7-11.6h26.6l-.1 16.1zM82.7 401.4v14.9l-7.2.5c.3-8.1-4.9-7.7-10-7.2-5.7.5-9.4-.8-7.2-8.1l24.4-.1zm420.8-46.6v-7.6h24.6v14.2c-6.4 1.7-6.4 1.7-8.2-5.4-5.2-.3-10.5-.7-16.4-1.2zm-141.7-7.7h25v17.1l-8.9-5.9c.3-.5.7-.9 1-1.4-5.3-.6-10.8-.8-16-2-.8-.2-.7-4.7-1.1-7.8zm-37.4 152h-15.9l-.4-8.2h24v14.8c-6.4 1.2-6.4 1.2-7.7-6.6zm428.4-143l-.5-8.9h24v14.5c-5.2 2.1-7.6.4-7.3-5.6h-16.2zM273.3 491v15.7c-2.5-.5-6.3-.8-6.3-1.4-.6-8.9-7-6.4-12-6.2-5.8.3-7.9-2.1-6.1-8.1h24.4zm-65.6 66.1l4.7-3.6-18.2-1.1-.4-7.5h24.8v15.8l-10.9-3.6zm-31.6-143.9l7.9-1-.1-2.5-17.1-1.1v-7.1h24.4V417l-15.1-3.8zm-74.5-3.4l-16.4-.9-.4-7.4h24.7V416c-7.2 1.1-7.8.7-7.9-6.2zm37.6-62.6h25v14.4c-5.8 2.6-7.8-.1-7.8-4.6-5-5.1-16.7 4.5-17.2-9.8zm44.1 8.5l-16.5-.8v-7.5h24.5v14.9h-6.5l-1.5-6.6zm233.6.4v-8.8h24.2v14.2c-5.8 2.9-7.3-.5-7.8-5.5l-16.4.1zm-26.8 142.8V491H414v14.6c-6.2 1.7-6.2 1.7-8.2-6.7h-15.7zM640 347.2h24.2V362c-3.3.7-5.7 1.7-7.5-3.2-.7-2-6.1-3.3-9.3-3.1-6.3.2-9.2-1.4-7.4-8.5zm-46.2-112c-1 5.4-.5 12.6-2.9 13.6-4.2 1.9-10.8 1.6-15-.6-2.4-1.3-2-8-3.1-13.1l21 .1zm-125.5 271c-6.6 2.1-7.4-1.8-7.2-6.6l-16.5-.8v-7.9h23.7v15.3zm168.8-104.8v15h-6.7l-1-7.4-11.3 1.4-.4 2.2-7.4-11.2h26.8zm-79.2-71.8h24.8v14.5c-6.6 1-6.6 1-7.8-5.6-4.6-4.8-17.6 7-17-8.9zm-2.4 17.6v14.2c-6.1 3.4-7.5-.4-7.9-5.6l-16.7-.9v-7.7h24.6zM273 416.3l-5.9.3-2-6.9-16.4-1-.4-7.3H273v14.9zm31.9 74.6v15.5h-6.3l-1.5-7.5h-15.9v-8h23.7zm-56.6-143.8h24.8v14.2c-6.3 1.7-6.3 1.7-7.6-4.5-4.7-5.3-17.1 5.1-17.2-9.7zm192.6 159.1c-7 2.3-7-2.3-7.2-7.1h-16.3a230.9 230.9 0 0 1-.4-8.1h23.9v15.2zM414 545v15.9l-11.8-3.8 4.4-1.8v-1.6l-16.4-1.4-.4-7.2 24.2-.1zM218.8 401.5v14.9h-6.7l-.9-6.5-17.1-1v-7.4h24.7zM749.1 491v14.9c-6.7 2.7-7.2-1.8-7.6-6.9h-16.1v-8.1l23.7.1zm81.8 53.8V561l-11.4-4 4.1-2.1c-.1-.5-.1-.9-.2-1.4-3.2-.2-6.4-.8-9.6-.6-6 .3-8.5-1.7-6.3-8.1h23.4zm-.1-53.9v15.4h-6.3l-1.3-5.8c-4.6-5.1-16.8 4.9-16.4-9.6h24zm-54.4-89.4v14.8h-6.6l-.9-6.6-9.7 5c-.2-.4-.5-.8-.7-1.2l5.1-1.6c0-.6.1-1.2.1-1.8l-11.1-1.9v-6.8l23.8.1zm-81.9-54.4h24.2v14.7c-3.2.9-5.9 2.2-7.1-3.1-1.4-6-6.7-3-10.1-3.1-5.8-.1-8.7-1.7-7-8.5zM82.4 308.4c-6.6 2.5-7.9-1.2-8-6.7H58.2l-.5-8h24.8l-.1 14.7zm30-7.3v-7.4h24.5v14.9l-6.6.6-1.8-7.3-16.1-.8zm598.8 108.5l-16.7-.9-.6-7.1h24.8v14.8h-6.5a122.96 122.96 0 0 1-1-6.8zM246 293.8v14.9l-6.7.4-1.3-7.7h-16.5l-.5-7.6h25zm587.9 116.1v-8.5h24.5v14.9l-6.6.4-1.7-6.8h-16.2zm-420.2-48.2c-6 2.4-7.5-.6-7.2-4.8-4.9-4.9-16.7 4.7-16.8-9.6h24v14.4zm-105.6-14.5h24.1v15.1h-6.3l-1.2-5.1c-4.8-5.3-17 4.6-16.6-10zm54.3 54.1h24.1v14.6c-6 2.5-7.3-1.1-7.4-6.2l-15.9-.7-.8-7.7zm441.2 158.2c-6.2 2.3-7.5-1.2-7.5-5-4.8-5.1-16.9 4.5-16.6-9.7h24.1v14.7zM468.2 361.7c-6.2 2.4-7.6-.9-7.3-5.9l-16.4-1v-7.5h23.6l.1 14.4zm338.6-14.5h23.8v14.5c-5.8 2.6-7-1-7.4-5.2-5.6-1-10.9-1.7-16-3-.5-.2-.2-3.9-.4-6.3zM495.5 559.5c-6 2.5-7.3-1.1-7.5-6l-16-1.2-.5-7.2h24.1l-.1 14.4zm-214.6-7.2v-7.4h24v14.9h-6.1l-1.8-6.4-16.1-1.1zm54.2-7.4h24.3v14.3c-6.3 1.3-6.3 1.3-7.9-4.9-4.6-4.6-16.3 4.3-16.4-9.4zm51.6.1v14.4c-6.2 2.6-7.6-.9-7.6-6l-16.1-1.2-.5-7.2h24.2z"/><path d="M503.5 301.1v-7.4H528v15.1h-6.6l-1.1-6.9-16.8-.8zm-347.1.2h-16.6v-7.6h24.3v14.9l-6.5.8-1.2-8.1zm148.5 115.1h-6.4l-1-6.6-16.3-.9-.4-7.4h24.1v14.9zm190.8 0h-6.6l-1-6.6-16.1-.8-.5-7.5h24.2v14.9zm106.1-115.2h-16.2l-.7-7.4h25v14.8l-6.4.6-1.7-8zm-410.4 7.7h-6.3l-1.6-7.4H167v-7.9h24.4v15.3zm364.1 218.3v7.7H531l-.6-7.7h25.1zm-59.8-233.6v15h-6.6l-1.3-7.1h-15.9v-7.9h23.8zm170.9.1h25v14.4c-6.5 1.3-6.5 1.3-7.6-5.1-4.6-5-16.5 4.5-17.4-9.3zM441.1 416c-6.3 2.2-7.8-.8-7-6.3l-16.7-.8-.3-7.3h24V416zm223.2-107.5c-6.2 2.1-7.8-.8-7.1-5.4-4.8-5.4-16.7 4.5-18-9.4h25l.1 14.8zm-470.1-7.7v-7.1h24.4v14.7c-7.1 3.2-6.7-2.6-7.8-6.4l-16.6-1.2zm518.7 207.7l-1.7-7.9c-5-4.8-14.4 3.5-18.1-7.8h22.2v-1.4H697v-.9h11.5c10.4 0 12.9 2.9 10.4 13.2-.3 1.6-3.1 2.6-6 4.8zm36.4-214.9v15l-6.4.7-1.4-7.2-16.1-.8-.5-7.6 24.4-.1zm-164 143.6h24.4v15l-6.8.4c2.2-10.2-4.9-8.1-10.4-8.2-7.2 0-7.2 0-7.2-7.2zm-54.4 6v-5.8h24.4v14.9l-6.3.3c-.1-14.4-11.6-5.4-18.1-9.4zm299.8-134.5h-6.3l-1.2-7.2c-3.3 0-6.6-.4-9.8.1-6.2.8-7.7-1.9-6.1-7.9h23.4v15zM582.5 452.3h-6.2c-1-3.6.1-8.8-6.4-7.9-3.7.5-7.5.1-11.8.1l-.3-7.2h24.8l-.1 15zm-223 74.4v8.4h-24.3l-.5-8.4h24.8zM305 293.8v15h-6.6l-.9-7.1h-16.2l-.5-7.9H305zm108.8 15h-6.3l-1.2-7.1h-16l-.5-8h24.1l-.1 15.1zm57.6 218h24.1v8.2h-23.3l-.8-8.2zm-84.7-233v14.8h-6.5l-1-6.6-16.2-1.1-.5-7.1h24.2zm46.8 7.5h-16v-7.8h23.4V308c-6.2 1.4-6.2 1.4-7.4-6.7zm346.3.3v-7.9h23.7v15.1h-6.6l-.9-7.2h-16.2zM560 383h22.5l.6 14.4c-6.5 3.2-7.9-.4-8-5.1-5.5-3.4-13.8 3-18.7-6.7h23.3v-1.5h-19.6c0-.4-.1-.8-.1-1.1zm270.9 143.8v8.2h-23.7v-8.2h23.7zm.1 36v8.3h-23.9l-.8-8.3H831zm-137 7.9v-7.9h25v7.9h-25zm-2.8-223.5v15.3c-2.1-.5-6-.9-6.1-1.7-.7-7.9-6.6-5-10.8-5.5-3.2-.4-7.7 1.2-7.3-5.7h21.6v-1.5h-19.7v-.9h22.3zM280 562.6h25v8.4h-24.1a169.54 169.54 0 0 1-.9-8.4zm-140.3-28.1v-7.9h24.6v7.9h-24.6zm390.6 28.3h25.2v8.1h-24.7l-.5-8.1zm-311.5.2v7.9h-24.9V563h24.9zm420.5-144h25.2v8.2h-24.8l-.4-8.2zM112.5 571v-8h24.3v8h-24.3z"/><path d="M693.9 427v-7.9h25l.4 7.9h-25.4zM528.2 534.5h-24.5v-7.6h24.5v7.6zm54.5-36.1h-24.6l-.4-7.4h24.9l.1 7.4zm-470.3 36V527h24.5v7.4h-24.5zm500-89.3v-7.7h24.7v7.7h-24.7zm-2.4-61.8v7.4h-24.5l-.6-7.4H610zM221.3 282.9v-7.2h24.8l.3 7.2h-25.1zm-29.7-7.4v7.8h-24.8v-7.8h24.8zM558 354.6v-7.3h24.5v7.3H558zm136.2-71.2v-7.9h24.5v7.9h-24.5zm-163.4 179v-7.5h24.5l.4 7.5h-24.9zm51.9-7.5v7.5h-24.4v-7.5h24.4zm2.8 7.5l-.5-7.5h24.8v7.5h-24.3zm-57.4 46.8v7.5h-24.4l-.4-7.5h24.8zm84.5-46.9v-7.4h24.3l.6 7.4h-24.9zM57.4 365.4h25.1v8.1H57.9l-.5-8.1zm582 89.5h24.9l.4 7.5H640l-.6-7.5zm-54.1-171.5v-8h24.5v8h-24.5zm-420.9 82.3v7.5h-24.5l-.6-7.5h25.1zM531 275.5h24.4v7.5H531v-7.5zm187.9 54.2v7.7h-24.5l-.4-7.7h24.9zm-609-18.3v7.4H85.4l-.5-7.4h25zm27.4.1v7.1h-24.8v-7.1h24.8zm529.7 115v-7.4h24.4l.5 7.4H667zM191.9 318.9H167l-.5-7.5h25l.4 7.5zm-82.5 162.2h-24l-.6-7.9h24.6v7.9zm527.8-62v7.3h-24.7v-7.3h24.7zm-51.9 7.2V419h24.5l.4 7.3h-24.9zm-54.5 0V419h24.6l.3 7.3h-24.9zm-27.3.3v-7.5h24.6l.4 7.5h-25zM193.8 319.1v-7.6h25l.3 7.6h-25.3zM221 480.8v-7.6h25v7.6h-25zm27.7-54.4l-.5-7.3h25v7.3h-24.5zm-27.6-7.5h24.8l.4 7.6h-24.8l-.4-7.6zm-54.2 7.4V419h24.5l.3 7.3h-24.8zm-27.6.2l.4-7.5h24.5v7.5h-24.9zm-26.8-.1l-.3-7.3h24.7l.6 7.3h-25zm-2.3 0h-25l-.3-7.3h24.7l.6 7.3zm445.2-96.9v7.9h-24.8v-7.9h24.8zm81.8 143.6v7.8h-24.8l-.4-7.8h25.2zM246.1 311.5v7.1h-24.8v-7.1h24.8zm472.6 169.7h-24.2l-.7-7.9h24.9v7.9zM164 337.5h-24.5v-7.8H164v7.8zm-81.5 45.7v7.4H58v-7.4h24.5zm2.3-.1h24.9v7.4H85.3l-.5-7.4zm27.2-.1h24.9l.5 7.6h-24.8l-.6-7.6zm27.8 7.6l-.5-7.3H164v7.3h-24.2zm54.2 0v-7.3h24.8v7.3H194zm54.7-71.9v-7.3h24.5l.5 7.3h-25zm-.1 64.4h24.5v8h-24.5v-8zm-136.1-45.6v-7.9h24.3v7.9h-24.3zm-54.7-.1v-8h24.6v8H57.8zm215.4 189.5v7.6h-24.5l-.4-7.6h24.9zm254.9-215.4v7.5h-24.5l-.4-7.5h24.9zm111.2-.1h25.1v7.4h-24.5l-.6-7.4zm27.8 79.5v-7.8h24.4v7.8h-24.4zm-109-72.1v-7.3h24.5l.5 7.3h-25zM503.2 383h24.9l.6 7.6h-24.8l-.7-7.6zm27.4 8v-7.9h24.9v7.9h-24.9zm109.4-.5l-.6-7.3h24.9l.4 7.3H640zm-2.8-7.3v7.3h-24.7v-7.3h24.7zM194.1 283v-7.3h24.5l.5 7.3h-25zm336.6 35.8v-7.2h24.7v7.2h-24.7zm54.8-7.4h24.4v7.5h-24.4v-7.5zm109.3-.1h24l.4 7.6c-7.4 0-14.5.4-21.5-.3-1.7-.2-3.2-3.7-4.8-5.7.7-.5 1.3-1 1.9-1.6zm-2.2 215.6h26.3v7.3c-7.5 0-14.8.3-22-.3-1.4-.1-2.4-3.8-4.3-7zM471.5 571v-8.2h24.1v8.2h-24.1zm220.2-62v7.5h-24.6l-.4-7.5h25zM85.3 526.8h24.4v7.7H85.3v-7.7zm524.6-.3v8.6l-24.2-1.1c-1.7-5.1-1-7.8 5-7.6 6.2.3 12.4.1 19.2.1zm-106.7-251h24.9l.4 7.5h-24.8l-.5-7.5zm-365.3-.1h26.2l.6 7.5c-7.8 0-15.3.3-22.7-.3-1.3-.1-2.3-3.9-4.1-7.2zm474.6 7.5v-7.3H637l.6 7.3h-25.1zm54.5 0v-7.2h24.4v7.2H667zM558 552.4v-7.6h24.5v7.6H558zM137.2 275.6v7.4h-24.6l-.4-7.4h25zm225.2 151.6V419h24.3v8.2h-24.3zm-30.1-61.8v8h-24.4l-.4-8h24.8zm225.8-82.5l-.4-7.3h24.8l.6 7.3h-25zm167.3 251.5v-7.5h23.7v7.5h-23.7zm-112.4.1c-2-6.5.4-8.2 5.2-8.1 6.1.1 12.3 0 18.8 0v8.1h-24zm-168.8-7.6h24.1v8.2l-23.4-1.1-.7-7.1zM137.1 509v7.5h-24.6l-.4-7.5h25zm587.8 0h24.3v7.7h-23.7l-.6-7.7zm109.4 25.4V527H858v7.4h-23.7zM386.8 318.9H363v-7.5h23.8v7.5zm420.3 143.5v-7.3h23.7v7.3h-23.7zm-27.2-79.3h23.7v7.4h-23.7v-7.4zm-3.1 79.4h-24v-7.6h23.5l.5 7.6zm-.4-71.3h-24l-.5-8.1h24.5v8.1zm-51-.6l-.3-7.3h24v7.3h-23.7zm-229.3 0H472v-7.5h23.6l.5 7.5zm143.6 125.9V509h24.6v7.5h-24.6zm-195-125.9v-7.4h23.5l.6 7.4h-24.1zm-3.2-7.5l-.3 7.7h-23.5l-.7-7.7h24.5zm-51.4 7.5v-7.5h23.6l.6 7.5h-24.2zm-54.4-.1v-7.3h23.7l.6 7.3h-24.3zm-3.4-7.3v7.4h-23.7v-7.4h23.7zm-51.5 7.3l.5-7.5h23.6l.5 7.5h-24.6zM749.1 455v7.3h-23.8V455h23.8zm54.8-17.8v7.9h-24.1l-.6-7.9h24.7zm-54.7 36v7.7h-23.4l-.9-7.7h24.3zM471.6 275.3h24.2v8h-24.2v-8zM807 373.4l-.6-7.9H831v7.9h-24zM414.4 508.9l-.6 7.9h-23.5l-.5-7.9h24.6zm416.3-189.6h-23.1l-1-7.9h24.1v7.9zm-54.3-7.9v7.5h-23.6v-7.5h23.6zM386.6 535.1l-23.3-1c-1.8-5.3-1-8 5.1-7.7 5.9.3 11.8.1 18.2.1v8.6zm-24-251.9v-7.6h24.1l.4 7.6h-24.5zm386.8 28.5v7.6h-24l-.9-7.6h24.9zm-253.4-.3l-.5 7.7h-23.4l-.8-7.7H496zm362 107.7v7.3h-23.6v-7.3H858zm-553-.1v7.5h-23.7V419H305zm3 7.4l.5-7.5h23.7l.5 7.5H308zm51.4-7.2l.4 7.3h-24l-.3-7.3h23.9zm471.7-143.7v8H807l-.5-8h24.6zM390 418.9h23.8l.5 7.4H390v-7.4zm51.1.1v7.8h-23.4l-.7-7.8h24.1zm27.2 0v7.5h-23.6l-.4-7.5h24zm3.4 8.4l-.4-8.3h24.1c2 6.3.4 9-6.5 8.4-5.5-.6-11.2-.1-17.2-.1zm335.5-.9V419h23.6l.3 7.5h-23.9zm-58-150.9v7.3h-23.8v-7.3h23.8zm30.6 143.3h23.6l.6 7.5h-24.1l-.1-7.5zM308.4 318.8v-7.4h23.9v7.4h-23.9zm440.9 100.3v7.4h-23.7v-7.4h23.7zm108.8 43.2h-23.7V455h23.7v7.3zm-612.3 54.1h-24.3V509h24.3v7.4zm89.9-197.5v-7.5h23.8v7.5h-23.8zm-54.2-7.5h23.6v7.6c-7 0-13.8.4-20.5-.3-1.8-.2-3.2-3.7-4.7-5.7.5-.6 1-1.1 1.6-1.6zm355.6 204.9h-24.7V509h24.7v7.3zm221.1-204.8v7.3h-23.8v-7.3h23.8zm-413.6 7.3v-7.2h23.9v7.2h-23.9zm332.3 208.3l-.3 7.4h-23.7l-.5-7.4h24.5zm-610-10.6v-7.4h24.7v7.4h-24.7zm106.3-7.4v7.4h-24.5v-7.4h24.5zm144.2-190.2v-7.5h23.8v7.5h-23.8zM193.8 509h24.9v7.4h-24.5l-.4-7.4zm111.1 17.9v7.6h-23.6l-.6-7.6h24.2zm-195.1-17.8v7.3H85.2l-.3-7.3h24.9zm-27.4 7.3H57.9v-7.3h24.5v7.3zm448.5-7.3h24.5v7.4h-24.5v-7.4zm-309.4 25.3V527H246l.3 7.4h-24.8zM558 516.6v-7.5h24.7v7.5H558zm194.2-241.1h24.1v7.5h-23.6l-.5-7.5z"/><path d="M413.8 282.9h-23.7v-7.3h23.7v7.3zm-105-7.3h23.5v7.5c-7 0-13.8.4-20.5-.3-1.8-.2-3.2-3.5-4.8-5.4l1.8-1.8zm331 204.7v-7.2h24.5v7.2h-24.5zm-108.9-7.2h24.5l.5 7.5h-25v-7.5zm-337.1 0h24.9l.5 7.5h-25l-.4-7.5zm-2.2 0v7.3h-24.8v-7.3h24.8zm-52 7.4v-7.3h24.6l.4 7.3h-25zm579.3 28.6v7.2h-24.4l-.6-7.2h25zm-359.1 7.4h-24V509h23.5l.5 7.5zM112.5 372.8l-.4-7h24.8l.5 7h-24.9zm-2.7-7.2v7.3H85.3l-.5-7.3h25zm557.9 107.5h23.8v7.2c-7 0-14.1.4-21-.3-1.8-.2-3.2-3.5-4.9-5.3.8-.5 1.4-1 2.1-1.6zm-585.1.1v7.3H57.9v-7.3h24.7zm775.6 35.9v7.3h-23.9v-7.3h23.9zM246.1 329.7v7c-7.5 0-14.7.3-21.9-.3-1.4-.1-2.6-3.5-4.7-6.7h26.6zM776.4 509v7.5h-23.8V509h23.8zM558 408.6v-7.2h24.6v7.2H558zM335.5 282.9v-7.3h23.8v7.3h-23.8zm301.7 82.8v7h-24.7v-7h24.7zm-51.9 6.7v-6.8h24.5v7.9l-24.5-1.1zm-56.9-6.8v7.2h-24.7v-7.2h24.7zm84.1-29.2v-6.8H637v7.9l-24.5-1.1zm-27.1.6l-.3-7.2h24.7l.5 7.2h-24.9zm-394 36.5l-24.5-1.2v-6.8h24.5v8zm140.9 153v7.9h-23.2c-2.2-5.9-.5-8.1 5-7.9 5.9.2 11.8 0 18.2 0zm335.4-89.3h23.7v7.3c-7.1 0-14.1.4-21-.3-1.7-.2-3.2-3.5-4.8-5.4.7-.5 1.4-1.1 2.1-1.6zm51.3.2v7.2h-24.3l-.9-7.2H719zM109.8 329.6v7.3H85.2v-7.3h24.6zm555.2 0h26.5v7.1c-7.3 0-14.5.3-21.7-.3-1.3-.1-2.5-3.5-4.8-6.8zM416.9 534l.5-7.1h23.8v8.1l-24.3-1zM194.2 365.6h24.5v7.9l-24.5-1.2v-6.7zm-84.1 197.5l-.4 7.3H85.2v-7.3h24.9zm418.1 0v7.3h-24.6v-7.3h24.6zm191-190.4c-7.7 0-14.5.4-21.3-.2-1.8-.2-3.3-3.3-4.9-5.1l1.4-1.7h24.5c0 2.4.2 4.6.3 7zm-250.7-97.2v7.4h-23.8v-7.4h23.8zM55.6 563h26.7l.6 7.1c-7.8 0-15.3.3-22.6-.2-1.3-.1-2.4-3.4-4.7-6.9zm193.6-197.5H273v7.1c-7.2 0-14.3.3-21.3-.2-1.6-.1-2.9-3.3-4.4-5.1.7-.7 1.3-1.3 1.9-1.8zm415.1-36.3v8.4l-24-1.2c-2-5.2-.7-7.5 4.7-7.3 6.4.3 12.8.1 19.3.1zM305.1 508.9v7.6h-23.8l-.9-7.6h24.7zm27.1.2v7.3h-23.7l-.4-7.3h24.1zm253.2 60.8v-6.8h24.4v7.9l-24.4-1.1zM246 365.6v7.2h-24.4l-.5-7.2H246zm250.2 143.5l-.4 7.3h-23.9v-7.3h24.3zm-331.9 54.2v7.1h-24.6l-.3-7.1h24.9zm.6-233.8h26.5l.4 7.2c-7.9 0-15.3.3-22.7-.3-1.2-.1-2.2-3.6-4.2-6.9zm2.1 240.8l-.4-7.1h24.8l.5 7.1H167zm500.6-204.8h23.8v7.1c-7.2 0-14.2.3-21.2-.2-1.6-.1-2.9-3.3-4.4-5.1l1.8-1.8zM468.5 509v7.4h-23.8V509h23.8zm89.9 60.9c-1.6-5.3-.3-7.4 4.7-7.3 6.4.2 12.8.1 19.5.1v8.3l-24.2-1.1zm-309.2-6.8h24v7.1c-7.6 0-14.8.3-22-.2-1.4-.1-2.5-3.3-3.8-5.1.6-.7 1.2-1.3 1.8-1.8zm442.5.1v6.9c-7.5 0-14.9.3-22.3-.2-1.3-.1-2.3-3.4-4.3-6.6l26.6-.1zm-277.8-90.1v7.5h-23.8v-7.5h23.8zm-27.2 36.1v7.3H363l-.5-7.3h24.2zm417.1-36.1v7.3h-24.1v-7.3h24.1zm-201.6 80.4h-16.4c0-.5 0-1-.1-1.5h21.9l.3-2.1c-6.2-5.7-14.9-.3-23.7-4.4h25.6v14.1c-5 1.7-8 .6-7.6-6.1zm177.7-37.1V509h23.9v7.4h-23.9zm-498.4-43.3H305v7.3c-6.9 0-13.7.4-20.4-.2-1.8-.2-3.3-3.3-5-5.1.7-.7 1.3-1.3 1.9-2zm163.1 7.4v-7.4h23.8v7.4h-23.8zm-109.1 0v-7.2h23.8v7.2h-23.8zm522.6.6l-23.7-1v-6.9h23.7v7.9zM807 444.2v-6.8h23.8v7.9l-23.8-1.1zm-58.1-27.9h-6.3l-1-7.1c-4.3 0-8.3.2-12.2-.1-1.5-.1-2.8-1.7-4.2-2.6 1.3-.9 2.7-2.4 4-2.5 6.4-.3 12.7-.1 19.7-.1v12.4zm-253.5-42.8l-23.4-1-.7-6.7h24.1v7.7zm.3 99.8v7.2H472l-.5-7.2h24.2zm-160-101v-6.8h23.8v7.9l-23.8-1.1zm.6-35.3c-1.7-5.4-.9-8 4.3-7.8 6.1.2 12.2 0 18.8 0l.5 7.8h-23.6zm388.6 226.1h24.2l.4 7.4h-24l-.6-7.4zM441 372.6c-7 0-13.7.3-20.4-.2-1.6-.1-2.9-3.3-5.8-6.6H441v6.8zm3.2-43.1h24.1v8.1l-23.6-1.2-.5-6.9zm-162.5 36h23.2v7.1c-7 0-13.8.3-20.5-.2-1.6-.1-3-3.3-4.4-5.1.5-.6 1.1-1.2 1.7-1.8zm104.9-35.9v7.9l-23.6-1.1v-6.8h23.6zm420.5 6.8v-6.7h23.8l.4 7.8-24.2-1.1zm-27.2.5v-7.2h23.8v7.2h-23.8zm-3.7.7l-23.4-1.2v-6.9h23.4v8.1zM390.1 570.4v-7.2h23.7v7.2h-23.7zm0-233.4v-7.2h23.7l.5 7.2h-24.2zm-168.4 48.5h21.1v-1.4h-19.7v-1h22.7l.6 8.3c-8.8-1.8-17.7 2-25.3-2.6l.6-3.3zm527.5-19.9v7.2h-23.7l-.6-7.2h24.3zm3.4-.1h23.7l.6 8-24.3-1.1v-6.9zm-282.9-36h25.8l.6 7c-7.6 0-14.8.3-21.9-.3-1.3 0-2.4-3.4-4.5-6.7zM834.9 563H858v7.1c-7 0-13.8.3-20.5-.2-1.6-.1-2.9-3.3-4.4-5.1l1.8-1.8zM753 437.2h23.2v7.2c-7 0-13.8.3-20.6-.3-1.6-.1-2.9-3.4-4.4-5.2.6-.5 1.2-1.1 1.8-1.7zm-366.2-71.5v7.2h-23.6l-.7-7.2h24.3zm393.5-.2h23.1v7.1c-7 0-13.7.3-20.4-.2-1.6-.1-2.9-3.3-4.4-5 .6-.7 1.1-1.3 1.7-1.9zm-339 107.8v7.2h-23.6l-.8-7.2h24.4zm416.8-99.8l-23.6-1.1-.5-6.8h24.1v7.9zm-81.6 189.7v7.3h-23.7l-.7-7.3h24.4zm-471.3-234v8.3l-23.6-1.1c-1.6-4.8-1-7.4 4.4-7.2 6.1.2 12.3 0 19.2 0zm31 241.2c-1.8-5.6-.6-7.9 4.4-7.8 6.1.1 12.2 0 18.7 0l.4 7.7-23.5.1zm108.5-.5v-6.8h23.5v8l-23.5-1.2zm-3.4-6.7v7.2h-23.7l-.4-7.2h24.1zm-132.9 6.6l-.3-6.6H332v7.8l-23.6-1.2zm327.7-65.1c-.1-8.8-3.2-12.2-10.6-11.5-3.9.4-7.9.1-11.9.1 0-.8-.1-1.7-.1-2.5 7 0 14.1-.2 21.1.2.9 0 2.2 2.8 2.4 4.4.4 3.5.1 7.1.1 11.2h-24.5c-.1-.6-.1-1.2-.2-1.8l23.7-.1zm113.6-59.8h-24.5l-.2-2.4 21.2-1.3v-1.5h-19.9c0-.6 0-1.2-.1-1.8h22.3l1.2 7zm-615.9 29.3h-19V473c5.2 0 10.5.3 15.7-.1 5.8-.4 7.9 1.8 6.4 7.4-7.3 0-14.4.1-21.6-.1-1.1 0-2.1-1.7-3.1-2.6 1.2-.7 2.4-2 3.6-2.1 5.9-.2 11.8-.1 17.7-.1l.3-1.2zm451.8 1.2h21.2v-1.1h-18.9v-1.2c6.2 0 12.4-.5 18.5.3 1.9.2 3.4 3.8 4.3 6.7-9.1-.4-17.9 2.2-25.7-1.6.1-1 .3-2 .6-3.1zm54.5-35.8h20.4v-1.3h-18.3v-.8H664l.8 8c-8.8-1.6-17.6.9-25.4-2.6.3-1.2.5-2.2.7-3.3zm24.2 125v5.6c-7.6 0-14.8.1-22.1-.1-.9 0-1.8-1.6-2.7-2.4 1.3-1 2.6-2.8 4-2.9 6.7-.4 13.3-.2 20.8-.2zm55.3-101.2h-22.5c0-.5-.1-1-.1-1.5h19.6c.1-.7.1-1.4.2-2.2-6.3-5.3-14.8-.2-21.7-4.9 7.2 0 14.5-.3 21.6.3 1.2.2 1.8 4.9 2.9 8.3zM441.1 331.3v5.5c-7 0-13.7.1-20.3-.1-1.2 0-2.4-1.4-3.7-2.1 1.2-1.1 2.3-3 3.6-3.1 6.5-.3 13-.2 20.4-.2zm-48 120.4l-.8-12.3-2-.2-1.4 12.3c-.4 0-.7.1-1.1.1l-1.2-12.4c-.5 0-1.1-.1-1.6-.1-.3 1.9-.8 3.7-.9 5.6-.2 2.1 0 4.3-1.2 6.6l-1.8-11.6c-.5-.1-1.1-.1-1.6-.2L378 451h-.7l-1.1-13.6h19l-.8 14.2c-.5 0-.9 0-1.3.1zm20.8-85.2v6.2c-7.1 0-13.8.1-20.5-.1-1.2 0-2.4-1.5-3.5-2.3 1.1-1 2.1-2.6 3.2-2.8 4.4-.4 8.9-.3 13.4-.5 2.1-.1 4.3-.3 7.4-.5zM139.7 552.8h24.6v7l-24.8-4.8c.1-.7.1-1.4.2-2.2zm610.9-297.4h23.5l1.2 1.6c-1.4 1.1-2.9 3.4-4.1 3.2-7.2-1-15.4 3.2-21.7-2.3.4-.9.8-1.7 1.1-2.5zm-27.9.2h24.6c1 6.9-4.1 4.6-6.9 4.7-16.7.5-16.7.4-17.7-4.7zM393 582.3h95v.3h-95v-.3zm-57.4-227.7h23.9v7.7l-24.1-5.6.2-2.1zM819 390.7c-3.1 0-6.2.2-9.2-.1-1-.1-1.9-1.5-2.8-2.3.9-.8 1.8-2.3 2.7-2.3 6.2-.2 12.4-.3 18.5 0 1 0 2 1.9 2.9 2.9-1 .8-1.9 2.1-3 2.2-3 .3-6.1.1-9.2.1.1-.3.1-.4.1-.5zm-16.3-71c-7.5-2.2-16.2 1.6-23.3-2.5.2-1.2.3-2.3.5-3.5 7 0 14.1-.2 21.1.2 1.3.1 2.4 2.6 3.6 4-.7.6-1.3 1.2-1.9 1.8zM60.3 425.4h20.2l.2-2.7-22-1.8v-1.2h23c1.5 7.3.5 8.4-6.5 8-4.9-.3-9.9-.1-14.9-.1v-2.2zm408.4-124.6l-.4 7.9-23.5-5.4c7.4-3.6 15.2-1.8 23.9-2.5zm223.9 231.1c-1.5 1.1-3 3.2-4.5 3.2-5.7.1-11.4-.2-17-.8-1.4-.1-2.8-1.6-4.1-2.5 1.6-.7 3.1-2 4.7-2 6.4-.2 12.8-.1 19.3-.1.4.7 1 1.4 1.6 2.2zm-123.5-278l7.2 5.7c-21.9 1.5-19.8.6-19.2-7.5a248.18 248.18 0 0 0 12 1.8c0 .1 0 0 0 0zm-428.2 64.2h21.2c-6.2-7.6-14.9-2-23.9-6.1h25.6l.4 7h-23.4c.1-.3.1-.6.1-.9zm554.2 65.1H718c1.9 5.3 1.5 8.7-5.5 8.2-5.4-.3-10.8-.1-16.2-1.7h20.6c-6.4-7-15-2-21.8-6.5zm82.1 94.5c-1.4 1.2-3.1 3.6-4 3.3-6.7-1.9-14.8 2.2-20.8-2.5.2-.8.3-1.6.5-2.4H776c.4.5.8 1 1.2 1.6zm-363.6-37.8c-.9 1.2-2.4 2.3-2.6 3.6-.4 2.5-.1 5.2-1.6 7.9l-1.4-12.2c-.6 0-1.2-.1-1.8-.1l-1.3 12.5c-.2 0-.5 0-.7.1l-1.9-12.6h-1.6l-1.3 12.1h-.8l-1.2-15.2 16.2 3.9c0 .1 0 0 0 0zm-221 95.2H168v-1.2h21.6c-6.1-7.8-15-2.5-21.9-7 7.1 0 14.3-.4 21.3.3 1.4.1 2.2 4.5 3.6 7.9z"/><path d="M246.4 362.3l-25.2-5.3c0-.5.1-1 .1-1.5h24.8l.3 6.8zM110.1 358c-3.5-15.2-16.7-5.1-25.4-10.3h24.9c.1 3.4.3 6.8.5 10.3zm412.1 267.2l-1.3-26.7 2.9-.2c6.2 8.5-.8 17.9.9 26.8-.8 0-1.6 0-2.5.1zM554.5 303c-4-13.2-16.1-3.2-24.4-9.4 8.6 0 15.7-.5 22.7.4 1.6.2 2.6 5.4 3.9 8.3-.8.2-1.5.5-2.2.7zM195.2 490.6c6.7 0 13.6-.7 20.2.4 2 .3 3.2 5.4 4 9-5.3-12.5-16.8-3.9-24.2-9.4zm332.9-238c-2.6 6.2-21.3 6.5-25.9 1.3 6 0 11.8-.9 17 .3 3.4.8 6 4 8.9-1.6zm138.1 149h25l.6 8.6c-5-12-16.5-3.2-25.6-8.6zm-420.5 10c-5-13.6-16.6-4.4-25.2-9.8h25.2v9.8zm222.6 4.7c-5.5 1.3-8.6.1-6.9-6.6h-16v-1.3h22.9v7.9zM332.1 545.1v10.2c-4.6-14.2-16.3-4.3-24.1-10.2h24.1zm471.7-189.9c-5.5-11.1-16.3-2.2-24.1-7.3h23.6c.2 2.2.4 4.7.5 7.3zm-27.6 190v9c-4.7-12.7-16-3.5-24.1-9h24.1zM335.1 401.6h24l.5 8.4c-4.8-12-16.2-2.7-24.5-8.4zM613 313.2c10.1-3.8 22.5-2.4 24 1.6l-24-1.6zM82 278.9l-23.8-1.6c12.9-3.9 23.6-2.5 23.8 1.6zm724.6 122.9h23.8l1 9c-6.1-12-16.5-3.7-24.8-9zm-278.9 74.6l-23.6-1.3c10.8-4 22.6-2.5 23.6 1.3zM249.6 331.6c14.3-4 21.8-2.9 23.1 1.2l-23.1-1.2zm-191.1 197c11.1-4.3 23-2.5 23.6 1.7l-23.6-1.7zm214.7-250l-23.9-1.1c0-.6 0-1.3.1-1.9 7.6 0 15.3-.1 22.9.2.3-.1.7 2.2.9 2.8zm-.4 197.8l-24.9-1.3c8.6-4.1 23.8-2.6 24.9 1.3zM664 530.3l-24.1-2c12-3.9 23.2-2.4 24.1 2zM531.6 367.4c10.6-3.5 21.5-2.5 23.8 1.4l-23.8-1.4zm132.6-89.9h-23.7V276h23.8c0 .5-.1 1-.1 1.5zm117 287.5c11-4.1 21.4-2.7 22 1.3l-22-1.3zM391 313.3c14.1-3.5 21.3-2.6 22.8 1.2l-22.8-1.2zm26.9 197.5c10.9-3.6 21.5-2.4 22.9 1.3l-22.9-1.3zm-86.2-178l-22.4-1.4.2-2c7.6.4 15.4-1.8 22.7 1.4-.1.7-.3 1.4-.5 2zm503.9-3.4c7.5.5 15.3-1.6 22.6 1.2l-.3 2.1-22.4-1.2c0-.7.1-1.4.1-2.1zM386.2 475.8h-22.5c6.8-4.6 21.4-3.4 22.5 0zM569.1 254l20.4-1.5-1.1 6.4-5.3-3.8 2.1 5-16.1-6.1c0-.1 0 0 0 0zm-232.8 95.1c15.5-3.7 21.9-2.8 22.6 1.2l-22.6-1.2zm109.2 54.3c13.2-3.6 21.1-2.7 22.6 1.1l-22.6-1.1zm-224.1 11.2H246v1.6h-24.6v-1.6zm334-105.9h-24.5v-1.5h24.6c-.1.5-.1 1-.1 1.5zM167 389.4h24.3v1.3h-24.4c.1-.4.1-.9.1-1.3zm668.4-5.7h22.5v1.6h-22.4c-.1-.5-.1-1.1-.1-1.6zm-171.1-10.4h-24.5v-1.4h24.6c-.1.5-.1.9-.1 1.4zM218.5 534.8h-24.2v-1.4h24.2c.1.5 0 1 0 1.4zm394.1 34.4h24.5v1.4h-24.4c-.1-.4-.1-.9-.1-1.4zm-391.3-.2h24.6v1.4h-24.5c0-.5 0-.9-.1-1.4zM85.2 281.8h24.5v1.4H85.2v-1.4zm606.5 134.4h-24.5v-1.6h24.5v1.6zm-163.6-79.1h-24.6v-1.4h24.6c.1.5.1.9 0 1.4zm-334-1.4h24.5c0 .4 0 .9.1 1.3h-24.5c0-.4-.1-.8-.1-1.3zm86.6-54.6h24.4v1.7h-24.4v-1.7zm358.8.1h25v1.7h-25c.1-.6.1-1.1 0-1.7zM194.2 504.6h24.5v1.6h-24.5v-1.6zm497.4-185.3h-24.5v-1.4h24.4c.1.5.1.9.1 1.4zm-609.3-.2H57.9v-1.3h24.4v1.3zm503 196h24.6v1.4h-24.6v-1.4zm-171.7 14.8l-23.9-1.4c10.8-4 22.8-2.6 23.9 1.4zM282.1 276h22.6c0 .4 0 .8-.1 1.2H282c.1-.4.1-.8.1-1.2zm552.9.1h22.9c0 .3-.1.6-.1.8h-22.9c0-.2 0-.5.1-.8zM830.4 475h-22.6v-1.2h22.6v1.2zm.1 35.9h-22.9v-1.5h22.9c.1.5.1 1 0 1.5zm27.7-120.2h-23.9v-1.8h23.9c-.1.6 0 1.2 0 1.8zM554.8 256.3l-9.6 3.9-1.8-4.7 10.3-2.5 1.1 3.3zM858.2 283h-24v-1.7h24v1.7zm-78.1-1.1h23.2v1.3H780c.1-.4.1-.8.1-1.3zM807 479h23.9v1.7H807c.1-.6 0-1.2 0-1.7zM440.9 283.5h-23.1v-1.3H441c-.2.4-.2.9-.1 1.3zM308.6 479.3h23.5v1.4h-23.5v-1.4zm27.2-64.7h23.6v1.5h-23.6v-1.5zm-26.9.3H332v1.3h-23.2c.1-.5.1-.9.1-1.3zM807 514.7h23.9v1.8H807v-1.8zm-420.5 55.9h-23.4c0-.3 0-.7.1-1h23.4c-.1.4-.1.7-.1 1zm81.8-197.3h-23.6v-1.4h23.7c-.1.4-.1.9-.1 1.4zm307.9 186.8h-23.3v-1.6h23.4c-.1.5-.1 1-.1 1.6zm-467.6-1.8H332v1.4h-23.4v-1.4zm498.7-143.6h23.6v1.6h-23.6v-1.6zm-3.9-52.1h-23.1V361h23.1v1.6zm55.2-8.6l-.5 8.8c-2.6-.6-4.9-.7-6.5-1.8-.7-.5-.8-3.8 0-4.5 1.5-1.2 3.8-1.5 7-2.5zm-139-101.5l.8-10.9c-.8.6-1.5 1.2-2.1 1.8-.5-.2-.9-.4-1.4-.7l2.6-4.3c1.1 1.2 3.1 2.3 3.1 3.5.1 3.5-.5 7-.9 10.5-.7 0-1.4.1-2.1.1z"/><path d="M349.7 300.7l2.9 5.3h-12.2c2.6-1.4 5.4-3.1 9.3-5.3z" fill="#fff"/></svg>